<svg width="157" height="202" viewBox="0 0 157 202" fill="none" xmlns="http://www.w3.org/2000/svg">
<g clip-path="url(#clip0_29_198)">
<path d="M109.543 104.564C114.551 123.057 105.017 141.727 88.2496 146.268C71.4819 150.808 53.8217 139.501 48.8142 121.008C48.5595 120.067 48.3426 119.127 48.1636 118.187C46.1075 107.485 48.8148 96.9613 54.8477 89.4126C54.8504 89.4062 54.8549 89.4007 54.8606 89.3968C58.7343 84.4915 64.083 80.955 70.1187 79.3083C74.6758 78.0736 79.4655 77.9734 84.0673 79.0167C84.1069 79.0228 84.1461 79.0311 84.1848 79.0414C94.4774 81.3891 103.591 89.1539 108.047 100.109C108.639 101.561 109.138 103.049 109.543 104.564Z" fill="#975656"/>
<path opacity="0.1" d="M109.543 104.564C114.551 123.057 105.017 141.727 88.2496 146.268C71.4819 150.808 53.8217 139.501 48.8142 121.008C48.5595 120.067 48.3426 119.127 48.1636 118.187C46.1075 107.485 48.8148 96.9613 54.8477 89.4126C54.8504 89.4062 54.8549 89.4007 54.8606 89.3968C58.7343 84.4915 64.083 80.955 70.1187 79.3083C74.6758 78.0736 79.4655 77.9734 84.0673 79.0167C84.1069 79.0228 84.1461 79.0311 84.1848 79.0414C94.4774 81.3891 103.591 89.1539 108.047 100.109C108.639 101.561 109.138 103.049 109.543 104.564Z" fill="black"/>
<path opacity="0.1" d="M108.036 100.107C100.362 87.6156 85.8059 80.993 71.7621 84.7957C57.1221 88.7599 47.7208 102.783 48.1722 118.182C46.116 107.48 48.8233 96.9566 54.8563 89.4078C54.8589 89.4014 54.8634 89.3959 54.8692 89.392C58.3796 85.2395 62.9314 82.0904 68.0589 80.2669C73.1864 78.4434 78.7055 78.0108 84.0518 79.0136C84.0913 79.0197 84.1305 79.0279 84.1692 79.0382C94.467 81.387 103.58 89.1472 108.036 100.107Z" fill="black"/>
<path d="M109.82 30.3696L111.767 37.557C111.965 38.2902 111.863 39.0725 111.484 39.7318C111.105 40.391 110.478 40.8732 109.743 41.0723C109.379 41.1712 108.999 41.1976 108.625 41.15C108.251 41.1023 107.89 40.9815 107.562 40.7945C107.235 40.6075 106.948 40.358 106.718 40.0602C106.488 39.7623 106.319 39.4221 106.22 39.0588L99.5996 14.6086C99.5192 14.3157 99.3763 14.0438 99.1809 13.8112C98.9854 13.5786 98.7418 13.391 98.4669 13.261C97.3877 12.7351 96.2684 12.2552 95.1091 11.8213C94.7474 11.6813 94.3538 11.6439 93.9719 11.7135C93.5899 11.783 93.2346 11.9567 92.9453 12.2152C92.656 12.4737 92.444 12.8071 92.3328 13.1782C92.2215 13.5494 92.2155 13.9439 92.3152 14.318L99.5066 40.8767C99.605 41.2399 99.6306 41.6191 99.582 41.9924C99.5334 42.3658 99.4116 42.726 99.2235 43.0525C99.0353 43.379 98.7846 43.6655 98.4856 43.8954C98.1866 44.1253 97.8452 44.2943 97.4809 44.3926C96.7466 44.5889 95.9647 44.4868 95.3065 44.1088C94.6483 43.7308 94.1674 43.1077 93.9693 42.376L85.3104 10.3977C85.2042 10.0044 84.9852 9.65073 84.6802 9.38014C84.3752 9.10955 83.9976 8.93379 83.5936 8.87445C83.3088 8.83131 83.0181 8.78484 82.7311 8.75209C82.4082 8.70966 82.0796 8.743 81.7716 8.84944C81.4637 8.95589 81.1847 9.13251 80.957 9.36527C80.7292 9.59803 80.559 9.88051 80.4597 10.1903C80.3605 10.5 80.335 10.8285 80.3853 11.1496C83.425 30.7917 76.9595 48.0766 64.4749 51.4571C51.7517 54.9022 37.1474 42.7384 29.994 23.6456C29.8821 23.3469 29.7031 23.0777 29.4707 22.8588C29.2384 22.6399 28.9588 22.4771 28.6534 22.3828C28.348 22.2885 28.0249 22.2652 27.7089 22.3148C27.393 22.3644 27.0924 22.4854 26.8304 22.6688L26.2386 23.0916C25.8928 23.341 25.6312 23.6895 25.4888 24.0908C25.3464 24.492 25.3299 24.9268 25.4415 25.3373L34.4199 58.4956C34.6185 59.2289 34.5169 60.0112 34.1374 60.6704C33.7579 61.3297 33.1317 61.8119 32.3965 62.011C32.0316 62.1133 31.6501 62.1427 31.2741 62.0973C30.898 62.0519 30.5347 61.9327 30.2052 61.7465C29.8757 61.5603 29.5865 61.3109 29.3542 61.0126C29.1219 60.7142 28.9512 60.3729 28.8518 60.0083L21.1309 31.4944C21.035 31.1354 20.8448 30.8086 20.58 30.5476C20.3151 30.2866 19.9852 30.1009 19.6243 30.0096C19.2633 29.9183 18.8844 29.9247 18.5265 30.0281C18.1685 30.1316 17.8446 30.3283 17.5881 30.5981C16.7845 31.4539 16.0221 32.3222 15.3009 33.2031C15.0891 33.4617 14.942 33.7667 14.8716 34.0931C14.8012 34.4194 14.8096 34.7577 14.8961 35.0799L22.1408 61.8353C22.2391 62.1985 22.2647 62.5777 22.2161 62.951C22.1676 63.3243 22.0457 63.6846 21.8576 64.0111C21.6695 64.3376 21.4187 64.624 21.1197 64.854C20.8207 65.0839 20.4793 65.2529 20.115 65.3512C19.3798 65.5503 18.5958 65.4499 17.9356 65.0722C17.2753 64.6945 16.7928 64.0704 16.5943 63.3371L12.1044 46.7557C11.5428 44.6815 8.59634 44.7062 8.04666 46.7843C6.94431 50.9657 6.87382 55.177 7.97786 59.2543C13.0281 77.9053 40.9114 86.5864 70.2533 78.6414C99.5951 70.6963 119.289 49.1325 114.239 30.4815C114.115 30.0241 113.975 29.5711 113.824 29.1212C112.96 26.5767 109.12 27.781 109.82 30.3696Z" fill="#373E46"/>
<g opacity="0.1">
<path d="M94.9939 46.1604C95.2096 46.8746 95.6959 47.4764 96.3496 47.838C97.0033 48.1996 97.7728 48.2925 98.4948 48.097C99.2168 47.9015 99.8344 47.433 100.216 46.791C100.598 46.149 100.715 45.384 100.54 44.6586L99.5156 40.874C99.6897 41.5994 99.5735 42.3643 99.1915 43.0063C98.8096 43.6484 98.192 44.1169 97.47 44.3124C96.748 44.5079 95.9785 44.415 95.3248 44.0534C94.6711 43.6918 94.1848 43.09 93.9691 42.3758L94.9939 46.1604Z" fill="black"/>
<path d="M27.2465 26.8781L27.837 26.4506C28.0987 26.2669 28.3991 26.1455 28.715 26.0955C29.0309 26.0456 29.354 26.0686 29.6594 26.1627C29.9648 26.2568 30.2445 26.4196 30.4769 26.6384C30.7093 26.8573 30.8882 27.1264 31 27.4252C38.1534 46.5179 52.7537 58.6853 65.4815 55.239C77.973 51.8566 84.4379 34.5694 81.3913 14.9292C81.3419 14.6077 81.3684 14.2791 81.4687 13.9695C81.569 13.6599 81.7404 13.3779 81.9691 13.1458C82.1977 12.9137 82.4775 12.738 82.7861 12.6326C83.0946 12.5273 83.4235 12.4952 83.7465 12.539C84.0353 12.5786 84.3266 12.6273 84.6089 12.6613C85.0127 12.7212 85.39 12.8972 85.6949 13.1677C85.9998 13.4382 86.219 13.7915 86.3257 14.1846L85.301 10.3999C85.1948 10.0066 84.9757 9.65298 84.6708 9.38239C84.3658 9.1118 83.9881 8.93605 83.5842 8.8767C83.2993 8.83356 83.0086 8.78709 82.7217 8.75434C82.3987 8.71192 82.0702 8.74525 81.7622 8.85169C81.4542 8.95814 81.1753 9.13476 80.9475 9.36752C80.7198 9.60028 80.5495 9.88276 80.4503 10.1925C80.351 10.5023 80.3256 10.8307 80.3759 11.1518C83.4156 30.7939 76.9501 48.0788 64.4654 51.4593C51.7423 54.9045 37.1379 42.7406 29.9845 23.6479C29.8727 23.3491 29.6937 23.08 29.4613 22.8611C29.2289 22.6422 28.9493 22.4793 28.6439 22.385C28.3385 22.2907 28.0155 22.2675 27.6995 22.3171C27.3835 22.3666 27.083 22.4877 26.821 22.671L26.2292 23.0939C25.8833 23.3432 25.6218 23.6918 25.4793 24.093C25.3369 24.4942 25.3204 24.9291 25.432 25.3396L26.4568 29.1242C26.3443 28.7144 26.3596 28.28 26.5007 27.8787C26.6417 27.4775 26.9019 27.1284 27.2465 26.8781Z" fill="black"/>
<path d="M114.686 32.5444C114.566 31.8531 114.419 31.1663 114.234 30.4825C114.11 30.0252 113.97 29.5721 113.819 29.1222C112.956 26.5823 109.116 27.7866 109.817 30.3752L110.843 34.1644C110.18 31.698 113.601 30.4918 114.686 32.5444Z" fill="black"/>
<path d="M107.245 42.8432C107.46 43.5574 107.947 44.1592 108.6 44.5208C109.254 44.8824 110.024 44.9753 110.746 44.7798C111.468 44.5843 112.085 44.1158 112.467 43.4737C112.849 42.8317 112.965 42.0668 112.791 41.3414L111.766 37.5568C111.94 38.2822 111.824 39.0471 111.442 39.6891C111.06 40.3311 110.443 40.7996 109.721 40.9951C108.999 41.1906 108.229 41.0977 107.576 40.7361C106.922 40.3745 106.436 39.7728 106.22 39.0586L107.245 42.8432Z" fill="black"/>
<path d="M96.1336 15.6057C97.2919 16.048 98.4112 16.5279 99.4914 17.0454C99.7663 17.1754 100.01 17.363 100.205 17.5956C100.401 17.8282 100.544 18.1001 100.624 18.393L99.5993 14.6083C99.5189 14.3155 99.3761 14.0435 99.1806 13.811C98.9851 13.5784 98.7416 13.3907 98.4666 13.2608C97.3874 12.7348 96.2681 12.2549 95.1088 11.8211C94.7471 11.681 94.3535 11.6437 93.9716 11.7133C93.5897 11.7828 93.2343 11.9564 92.945 12.215C92.6557 12.4735 92.4437 12.8068 92.3325 13.178C92.2212 13.5492 92.2152 13.9437 92.3149 14.3178L93.3403 18.1047C93.2401 17.7305 93.2458 17.3358 93.3567 16.9643C93.4677 16.5929 93.6796 16.2592 93.9689 16.0004C94.2583 15.7416 94.6137 15.5677 94.9958 15.498C95.3779 15.4283 95.7717 15.4656 96.1336 15.6057Z" fill="black"/>
<path d="M9.06887 50.5693C9.61626 48.4919 12.5657 48.4688 13.1273 50.543L12.1019 46.7561C11.5403 44.6819 8.59377 44.7066 8.04409 46.7847C6.94174 50.9661 6.87125 55.1774 7.97529 59.2547C8.14743 59.8904 8.34875 60.5158 8.57344 61.1275C7.96239 57.6153 8.13151 54.0112 9.06887 50.5693Z" fill="black"/>
<path d="M17.6232 67.1105C17.8388 67.8247 18.3251 68.4264 18.9788 68.788C19.6325 69.1496 20.4021 69.2425 21.1241 69.047C21.8461 68.8515 22.4637 68.383 22.8456 67.741C23.2275 67.099 23.3438 66.3341 23.1696 65.6086L22.1448 61.824C22.319 62.5494 22.2027 63.3144 21.8208 63.9564C21.4389 64.5984 20.8213 65.0669 20.0993 65.2624C19.3773 65.4579 18.6077 65.365 17.9541 65.0034C17.3004 64.6418 16.814 64.04 16.5984 63.3259L17.6232 67.1105Z" fill="black"/>
<path d="M29.8763 63.7927C30.092 64.5068 30.5783 65.1086 31.232 65.4702C31.8857 65.8318 32.6553 65.9247 33.3773 65.7292C34.0993 65.5337 34.7168 65.0652 35.0988 64.4232C35.4807 63.7812 35.5969 63.0162 35.4228 62.2908L34.398 58.5062C34.5722 59.2316 34.4559 59.9965 34.074 60.6385C33.692 61.2806 33.0745 61.7491 32.3525 61.9446C31.6305 62.1401 30.8609 62.0472 30.2072 61.6856C29.5535 61.324 29.0672 60.7222 28.8516 60.008L29.8763 63.7927Z" fill="black"/>
<path d="M16.3323 36.9856C17.052 36.1051 17.8146 35.2376 18.6201 34.3829C18.8768 34.1151 19.2002 33.92 19.5571 33.8177C19.914 33.7154 20.2917 33.7095 20.6513 33.8006C21.011 33.8917 21.3398 34.0766 21.6041 34.3364C21.8684 34.5961 22.0587 34.9213 22.1555 35.2788L21.1307 31.4941C21.0347 31.1352 20.8445 30.8083 20.5797 30.5474C20.3149 30.2864 19.985 30.1006 19.624 30.0093C19.2631 29.918 18.8841 29.9244 18.5262 30.0279C18.1683 30.1313 17.8444 30.3281 17.5878 30.5979C16.7843 31.4536 16.0219 32.322 15.3006 33.2029C15.0889 33.4615 14.9417 33.7665 14.8713 34.0928C14.8009 34.4192 14.8093 34.7574 14.8958 35.0797L15.9212 38.8666C15.8349 38.5432 15.8271 38.2039 15.8986 37.8768C15.9701 37.5496 16.1188 37.2441 16.3323 36.9856Z" fill="black"/>
</g>
<path opacity="0.1" d="M89.0272 60.0704C88.8446 60.1512 88.6564 60.2186 88.464 60.272L43.5077 72.445C43.3147 72.4961 43.1182 72.5329 42.9198 72.5551C42.9667 68.0944 44.22 63.7274 46.5475 59.9154C48.8749 56.1034 52.1901 52.9878 56.1429 50.8976L66.6901 48.0417C71.1565 47.8534 75.5894 48.8715 79.521 50.9886C83.4525 53.1058 86.7368 56.2435 89.0272 60.0704Z" fill="black"/>
<path d="M92.2414 66.1241C93.8688 72.1665 93.1358 78.6031 90.1904 84.1332C87.245 89.6633 82.307 93.8746 76.374 95.9161C70.4411 97.9576 63.9556 97.6771 58.2282 95.1312C52.5007 92.5854 47.9583 87.964 45.5188 82.201C43.0793 76.438 42.9246 69.963 45.0861 64.0844C47.2475 58.2059 51.5638 53.362 57.1628 50.5317C62.7619 47.7014 69.2262 47.0957 75.2495 48.8369C81.2728 50.5781 86.406 54.5365 89.6118 59.9121C90.7688 61.8528 91.6535 63.9429 92.2414 66.1241Z" fill="#975656"/>
<path opacity="0.1" d="M44.1349 74.7247C44.1802 68.8422 46.3258 63.1657 50.1863 58.7142C54.0469 54.2627 59.3695 51.3278 65.1988 50.4364C71.028 49.545 76.9821 50.7554 81.992 53.8505C87.002 56.9455 90.7397 61.7224 92.5342 67.3235C92.4477 66.9223 92.3497 66.5242 92.2414 66.124C90.5269 59.7923 86.3606 54.4027 80.6591 51.141C74.9576 47.8793 68.188 47.0127 61.8393 48.7317C55.4907 50.4508 50.0831 54.6147 46.8063 60.3075C43.5295 66.0003 42.6517 72.7557 44.3662 79.0874C44.4746 79.4876 44.5817 79.8832 44.7186 80.2708C44.3157 78.4501 44.1199 76.5897 44.1349 74.7247Z" fill="black"/>
<path d="M151.618 153.484C152.462 156.596 152.485 159.874 151.684 162.999C150.883 166.124 149.285 168.991 147.046 171.319C145.118 173.343 142.756 174.905 140.138 175.89C139.578 176.103 138.998 176.289 138.409 176.449L104.837 185.539C103.956 185.777 103.073 185.987 102.185 186.164C101.387 186.323 100.59 186.461 99.7893 186.567C97.9552 186.823 96.1058 186.953 94.2542 186.956C93.408 186.958 92.5654 186.933 91.7264 186.882C89.759 186.759 87.8037 186.491 85.8761 186.081C84.9695 185.889 84.0737 185.668 83.1886 185.417C81.034 184.806 78.9341 184.019 76.9104 183.062C75.9176 182.595 74.9447 182.086 73.9918 181.535C64.7075 176.213 57.9277 167.426 55.1436 157.107L44.1837 116.631L111.626 98.3693L121.956 136.517C122.304 137.807 123.117 138.922 124.239 139.65C125.361 140.378 126.713 140.667 128.037 140.462C128.234 140.428 128.433 140.389 128.63 140.336C129.22 140.176 129.814 140.045 130.404 139.944C133.162 139.476 135.988 139.633 138.675 140.404C141.78 141.287 144.602 142.955 146.87 145.247C149.137 147.538 150.772 150.375 151.618 153.484Z" fill="#D33943"/>
<g opacity="0.1">
<path d="M50.1657 114.393L66.9622 176.424C65.7323 175.308 64.5726 174.118 63.4895 172.86L47.8292 115.025L50.1657 114.393Z" fill="black"/>
<path d="M57.755 112.338L76.9058 183.063C75.9129 182.596 74.94 182.087 73.9871 181.537L55.4209 112.97L57.755 112.338Z" fill="black"/>
<path d="M65.3513 110.281L85.8761 186.081C84.9695 185.889 84.0736 185.668 83.1886 185.417L63.0149 110.913L65.3513 110.281Z" fill="black"/>
<path d="M72.9362 108.227L94.2523 186.95C93.4061 186.951 92.5635 186.927 91.7245 186.876L70.5997 108.86L72.9362 108.227Z" fill="black"/>
<path d="M80.5278 106.171L78.1914 106.804L99.8716 186.871L102.208 186.238L80.5278 106.171Z" fill="black"/>
<path d="M88.1173 104.116L85.7809 104.749L107.461 184.816L109.798 184.183L88.1173 104.116Z" fill="black"/>
<path d="M95.7067 102.061L93.3702 102.694L115.05 182.761L117.387 182.128L95.7067 102.061Z" fill="black"/>
<path d="M103.298 100.006L100.962 100.638L122.642 180.705L124.979 180.073L103.298 100.006Z" fill="black"/>
<path d="M110.888 97.9507L108.551 98.5833L130.231 178.65L132.568 178.018L110.888 97.9507Z" fill="black"/>
<path d="M130.404 139.944L140.157 175.963L137.821 176.595L128.038 140.464C128.235 140.43 128.434 140.391 128.631 140.338C129.22 140.176 129.814 140.045 130.404 139.944Z" fill="black"/>
<path d="M138.672 140.393L147.046 171.319L145.033 173.138L136.017 139.84C136.914 139.959 137.802 140.143 138.672 140.393Z" fill="black"/>
</g>
<path d="M108.548 87.3356L41.2839 105.549C39.6238 105.999 38.6414 107.705 39.0897 109.361L41.5659 118.506C42.0143 120.161 43.7235 121.139 45.3837 120.69L112.647 102.476C114.307 102.027 115.29 100.32 114.842 98.6645L112.365 89.5197C111.917 87.8639 110.208 86.8861 108.548 87.3356Z" fill="#EEEFF0"/>
<g opacity="0.03">
<path d="M108.548 87.3356L41.2839 105.549C39.6238 105.999 38.6414 107.705 39.0897 109.361L41.5659 118.506C42.0143 120.161 43.7235 121.139 45.3837 120.69L112.647 102.476C114.307 102.027 115.29 100.32 114.842 98.6645L112.365 89.5197C111.917 87.8639 110.208 86.8861 108.548 87.3356Z" fill="black"/>
</g>
<path opacity="0.1" d="M113.599 105.655L46.1633 123.915L47.2668 127.99L114.702 109.73L113.599 105.655Z" fill="black"/>
<path opacity="0.1" d="M116.989 118.175L49.5535 136.435L50.6569 140.51L118.093 122.25L116.989 118.175Z" fill="black"/>
<path opacity="0.1" d="M59.3332 75.349C61.1073 74.8686 62.1571 73.0448 61.678 71.2754C61.1989 69.506 59.3723 68.461 57.5982 68.9414C55.8241 69.4218 54.7743 71.2456 55.2534 73.015C55.7325 74.7844 57.5591 75.8294 59.3332 75.349Z" fill="black"/>
<path d="M59.2544 75.0586C61.0286 74.5782 62.0784 72.7544 61.5993 70.985C61.1201 69.2156 59.2936 68.1706 57.5194 68.651C55.7453 69.1314 54.6955 70.9552 55.1746 72.7246C55.6537 74.494 57.4803 75.5389 59.2544 75.0586Z" fill="#EEEFF0"/>
<path d="M58.7814 73.3115C59.588 73.093 60.0654 72.2638 59.8475 71.4593C59.6297 70.6548 58.7992 70.1797 57.9925 70.3981C57.1859 70.6165 56.7086 71.4458 56.9264 72.2503C57.1443 73.0548 57.9748 73.5299 58.7814 73.3115Z" fill="#373E46"/>
<path d="M58.5995 71.484C58.7606 71.4404 58.8559 71.2748 58.8124 71.1142C58.7689 70.9535 58.6031 70.8587 58.442 70.9023C58.281 70.9459 58.1857 71.1114 58.2291 71.2721C58.2726 71.4327 58.4385 71.5276 58.5995 71.484Z" fill="white"/>
<path opacity="0.1" d="M78.6002 70.132C80.3743 69.6516 81.4241 67.8278 80.945 66.0584C80.4658 64.289 78.6393 63.244 76.8651 63.7244C75.091 64.2048 74.0412 66.0286 74.5203 67.798C74.9994 69.5674 76.826 70.6123 78.6002 70.132Z" fill="black"/>
<path d="M78.5215 69.8415C80.2957 69.3611 81.3455 67.5373 80.8663 65.7679C80.3872 63.9985 78.5606 62.9536 76.7865 63.434C75.0124 63.9143 73.9626 65.7382 74.4417 67.5076C74.9208 69.277 76.7474 70.3219 78.5215 69.8415Z" fill="#EEEFF0"/>
<path d="M78.0484 68.0944C78.855 67.876 79.3323 67.0468 79.1145 66.2423C78.8967 65.4377 78.0662 64.9626 77.2595 65.1811C76.4529 65.3995 75.9755 66.2287 76.1934 67.0332C76.4112 67.8377 77.2417 68.3128 78.0484 68.0944Z" fill="#373E46"/>
<path d="M76.993 66.5035C77.154 66.4599 77.2493 66.2943 77.2058 66.1337C77.1623 65.973 76.9965 65.8782 76.8354 65.9218C76.6744 65.9654 76.5791 66.131 76.6226 66.2916C76.6661 66.4522 76.8319 66.5471 76.993 66.5035Z" fill="white"/>
<path opacity="0.1" d="M71.8415 83.3531C74.2602 82.6982 75.6914 80.2118 75.0383 77.7995C74.3851 75.3873 71.8949 73.9627 69.4762 74.6176C67.0575 75.2725 65.6263 77.7589 66.2795 80.1712C66.9327 82.5834 69.4229 84.008 71.8415 83.3531Z" fill="black"/>
<path d="M71.7703 83.0901C74.1889 82.4352 75.6201 79.9488 74.967 77.5365C74.3138 75.1243 71.8236 73.6997 69.4049 74.3546C66.9862 75.0095 65.555 77.4959 66.2082 79.9082C66.8614 82.3204 69.3516 83.745 71.7703 83.0901Z" fill="#D33943"/>
<path opacity="0.1" d="M136.358 163.149L132.991 162.374C132.853 162.342 132.709 162.355 132.579 162.41C132.449 162.465 132.339 162.56 132.266 162.681L130.483 165.638C130.41 165.758 130.301 165.853 130.171 165.908C130.041 165.963 129.897 165.975 129.76 165.943C129.622 165.911 129.499 165.837 129.407 165.731C129.314 165.624 129.258 165.492 129.246 165.351L128.947 161.918C128.936 161.776 128.88 161.642 128.787 161.535C128.694 161.428 128.569 161.353 128.431 161.321L125.064 160.549C124.927 160.517 124.804 160.442 124.712 160.336C124.62 160.229 124.564 160.097 124.552 159.957C124.54 159.817 124.573 159.676 124.645 159.556C124.718 159.435 124.826 159.34 124.956 159.285L128.136 157.933C128.266 157.878 128.376 157.783 128.449 157.663C128.522 157.542 128.554 157.401 128.542 157.261L128.242 153.827C128.226 153.684 128.257 153.539 128.33 153.415C128.403 153.29 128.514 153.192 128.648 153.136C128.781 153.08 128.929 153.068 129.069 153.103C129.209 153.137 129.335 153.216 129.426 153.328L131.69 155.927C131.783 156.034 131.906 156.108 132.043 156.14C132.181 156.172 132.325 156.16 132.455 156.106L135.637 154.753C135.767 154.697 135.912 154.684 136.05 154.716C136.188 154.747 136.312 154.821 136.405 154.928C136.497 155.034 136.554 155.168 136.565 155.308C136.577 155.449 136.544 155.59 136.47 155.711L134.68 158.679C134.607 158.8 134.574 158.94 134.586 159.08C134.598 159.22 134.654 159.353 134.746 159.459L137.013 162.06C137.105 162.167 137.16 162.3 137.172 162.439C137.184 162.579 137.151 162.72 137.079 162.84C137.006 162.961 136.898 163.055 136.768 163.111C136.639 163.166 136.495 163.179 136.358 163.149Z" fill="black"/>
<path d="M135.757 162.658L132.771 161.972C132.649 161.944 132.521 161.955 132.406 162.004C132.29 162.053 132.193 162.137 132.129 162.244L130.55 164.866C130.485 164.973 130.388 165.057 130.273 165.105C130.158 165.154 130.03 165.165 129.908 165.137C129.786 165.109 129.676 165.044 129.594 164.95C129.512 164.856 129.462 164.738 129.45 164.614L129.196 161.566C129.185 161.441 129.135 161.324 129.053 161.229C128.971 161.135 128.861 161.069 128.739 161.041L125.753 160.355C125.63 160.328 125.52 160.262 125.437 160.168C125.355 160.074 125.305 159.956 125.294 159.831C125.283 159.706 125.313 159.581 125.378 159.474C125.443 159.367 125.54 159.283 125.656 159.235L128.477 158.039C128.592 157.991 128.688 157.908 128.753 157.802C128.818 157.697 128.848 157.574 128.84 157.45L128.574 154.405C128.563 154.281 128.592 154.156 128.656 154.048C128.721 153.941 128.818 153.857 128.933 153.808C129.049 153.759 129.177 153.748 129.299 153.776C129.421 153.804 129.531 153.87 129.613 153.964L131.621 156.27C131.703 156.365 131.813 156.431 131.935 156.459C132.057 156.488 132.185 156.476 132.301 156.427L135.108 155.225C135.223 155.175 135.351 155.164 135.474 155.191C135.596 155.219 135.706 155.285 135.789 155.379C135.871 155.474 135.921 155.592 135.931 155.717C135.942 155.841 135.912 155.966 135.847 156.073L134.266 158.696C134.202 158.803 134.173 158.928 134.184 159.052C134.196 159.176 134.246 159.294 134.328 159.388L136.336 161.694C136.418 161.788 136.468 161.905 136.479 162.03C136.491 162.154 136.462 162.278 136.398 162.386C136.334 162.493 136.237 162.577 136.122 162.626C136.007 162.675 135.879 162.686 135.757 162.658Z" fill="#EEEFF0"/>
<path opacity="0.1" d="M52.8214 113.885L50.7406 113.407C50.6566 113.389 50.569 113.397 50.4899 113.431C50.4108 113.465 50.3442 113.522 50.2994 113.596L49.1971 115.423C49.1527 115.499 49.0854 115.558 49.0049 115.592C48.9245 115.627 48.8352 115.635 48.7499 115.615C48.6647 115.596 48.588 115.549 48.531 115.483C48.4741 115.417 48.4398 115.334 48.4332 115.247L48.2469 113.123C48.2401 113.036 48.2055 112.954 48.1483 112.888C48.091 112.822 48.0142 112.776 47.9289 112.757L45.8481 112.28C45.7629 112.261 45.6861 112.215 45.6287 112.149C45.5714 112.084 45.5363 112.002 45.5287 111.915C45.521 111.828 45.5411 111.741 45.5862 111.666C45.6312 111.591 45.6988 111.533 45.7792 111.499L47.7483 110.664C47.8284 110.63 47.8957 110.572 47.9406 110.497C47.9855 110.423 48.0056 110.336 47.998 110.25L47.814 108.125C47.8056 108.038 47.8252 107.951 47.87 107.876C47.9147 107.801 47.9823 107.742 48.0628 107.708C48.1433 107.674 48.2326 107.666 48.3177 107.686C48.4028 107.706 48.4792 107.753 48.5359 107.819L49.9386 109.428C49.9944 109.496 50.0708 109.544 50.1563 109.565C50.2418 109.586 50.332 109.579 50.4132 109.544L52.38 108.71C52.461 108.674 52.5513 108.666 52.6376 108.685C52.7239 108.704 52.8016 108.751 52.8594 108.818C52.9172 108.884 52.9519 108.968 52.9585 109.056C52.965 109.144 52.9431 109.232 52.8959 109.307L51.7936 111.134C51.7499 111.209 51.7304 111.295 51.7378 111.381C51.7452 111.467 51.7791 111.548 51.8349 111.614L53.2346 113.221C53.2913 113.287 53.3253 113.369 53.3319 113.456C53.3385 113.542 53.3172 113.629 53.2712 113.703C53.2252 113.777 53.1568 113.834 53.0759 113.867C52.9951 113.9 52.9059 113.906 52.8214 113.885Z" fill="black"/>
<path d="M52.4498 113.585L50.6114 113.158C50.5358 113.141 50.4569 113.148 50.3856 113.179C50.3144 113.209 50.2544 113.261 50.2141 113.327L49.2381 114.948C49.1977 115.014 49.1376 115.065 49.0663 115.095C48.9951 115.125 48.9164 115.131 48.8412 115.114C48.7661 115.096 48.6983 115.056 48.6475 114.998C48.5967 114.94 48.5655 114.868 48.5582 114.791L48.3954 112.909C48.3891 112.832 48.3584 112.759 48.3076 112.7C48.2569 112.642 48.1888 112.602 48.1134 112.585L46.2749 112.157C46.1992 112.141 46.1308 112.1 46.0796 112.042C46.0284 111.984 45.9971 111.911 45.9902 111.834C45.9833 111.757 46.0012 111.68 46.0412 111.613C46.0812 111.547 46.1414 111.495 46.2129 111.465L47.9591 110.724C48.0302 110.695 48.09 110.643 48.1297 110.577C48.1694 110.511 48.187 110.434 48.1798 110.358L48.017 108.475C48.0108 108.398 48.029 108.322 48.0689 108.256C48.1088 108.19 48.1684 108.138 48.2393 108.108C48.3102 108.078 48.3889 108.07 48.4641 108.087C48.5394 108.104 48.6075 108.143 48.6588 108.201L49.9019 109.629C49.9528 109.687 50.0207 109.727 50.0961 109.744C50.1715 109.762 50.2504 109.754 50.3214 109.724L52.0653 108.984C52.1365 108.954 52.2157 108.946 52.2913 108.963C52.3669 108.981 52.435 109.021 52.4859 109.08C52.5367 109.138 52.5677 109.211 52.5742 109.288C52.5807 109.365 52.5626 109.442 52.5223 109.508L51.544 111.131C51.5042 111.197 51.4864 111.273 51.493 111.35C51.4996 111.427 51.5303 111.499 51.5808 111.558L52.8233 112.983C52.8777 113.042 52.9113 113.117 52.9189 113.197C52.9264 113.277 52.9076 113.357 52.8653 113.425C52.8229 113.494 52.7594 113.546 52.6844 113.575C52.6094 113.604 52.527 113.607 52.4498 113.585Z" fill="#D33943"/>
<path opacity="0.1" d="M63.0384 111.118L60.9576 110.641C60.8736 110.623 60.786 110.631 60.7069 110.665C60.6278 110.698 60.5612 110.756 60.5163 110.829L59.4163 112.656C59.3714 112.731 59.3039 112.79 59.2235 112.824C59.1432 112.858 59.054 112.866 58.969 112.846C58.8839 112.827 58.8072 112.781 58.7499 112.715C58.6927 112.65 58.6577 112.567 58.6502 112.481L58.4639 110.357C58.4571 110.27 58.4225 110.187 58.3653 110.121C58.308 110.056 58.2311 110.01 58.1459 109.991L56.0651 109.514C55.9798 109.494 55.903 109.448 55.8457 109.382C55.7883 109.317 55.7535 109.234 55.7461 109.147C55.7387 109.06 55.7591 108.973 55.8045 108.899C55.8498 108.824 55.9178 108.765 55.9985 108.732L57.9653 107.897C58.0454 107.863 58.1127 107.805 58.1576 107.731C58.2025 107.656 58.2226 107.57 58.215 107.483L58.031 105.359C58.0234 105.272 58.0436 105.185 58.0886 105.11C58.1337 105.035 58.2013 104.977 58.2817 104.943C58.3621 104.909 58.4513 104.901 58.5364 104.921C58.6214 104.94 58.698 104.986 58.7552 105.052L60.1555 106.661C60.2116 106.729 60.288 106.777 60.3734 106.798C60.4589 106.819 60.5489 106.812 60.6302 106.778L62.597 105.943C62.678 105.908 62.7683 105.899 62.8546 105.918C62.9409 105.938 63.0186 105.984 63.0764 106.051C63.1341 106.118 63.1689 106.201 63.1754 106.29C63.182 106.378 63.1601 106.465 63.1129 106.54L62.0129 108.367C61.9685 108.441 61.9486 108.528 61.956 108.614C61.9635 108.7 61.9978 108.781 62.0542 108.847L63.4539 110.453C63.5095 110.52 63.5426 110.602 63.5485 110.689C63.5544 110.776 63.5328 110.862 63.4868 110.935C63.4407 111.009 63.3726 111.066 63.2921 111.099C63.2116 111.132 63.1228 111.139 63.0384 111.118Z" fill="black"/>
<path d="M62.6692 110.818L60.8307 110.391C60.7556 110.374 60.677 110.381 60.6062 110.411C60.5353 110.442 60.4757 110.493 60.4358 110.559L59.4575 112.181C59.4175 112.247 59.3576 112.299 59.2863 112.329C59.2151 112.359 59.1361 112.366 59.0608 112.348C58.9856 112.331 58.9178 112.29 58.8673 112.232C58.8168 112.173 58.7862 112.1 58.7799 112.023L58.6148 110.141C58.6085 110.064 58.5777 109.992 58.527 109.933C58.4762 109.875 58.4082 109.835 58.3327 109.818L56.4943 109.39C56.4184 109.373 56.35 109.333 56.2989 109.274C56.2478 109.216 56.2166 109.143 56.21 109.066C56.2033 108.988 56.2215 108.911 56.2619 108.845C56.3022 108.778 56.3627 108.727 56.4345 108.697L58.1784 107.957C58.2497 107.927 58.3096 107.876 58.3497 107.81C58.3897 107.744 58.4078 107.667 58.4014 107.59L58.2363 105.708C58.2309 105.633 58.2489 105.558 58.2878 105.493C58.3267 105.428 58.3847 105.377 58.4538 105.346C58.5229 105.315 58.5999 105.306 58.6741 105.321C58.7484 105.335 58.8163 105.372 58.8688 105.426L60.1119 106.854C60.1627 106.913 60.2307 106.953 60.3061 106.97C60.3815 106.987 60.4603 106.98 60.5314 106.949L62.2753 106.21C62.3465 106.179 62.4257 106.172 62.5013 106.189C62.5769 106.206 62.645 106.247 62.6959 106.305C62.7467 106.363 62.7776 106.436 62.7842 106.514C62.7907 106.591 62.7725 106.668 62.7322 106.734L61.7563 108.356C61.7154 108.421 61.6969 108.498 61.7035 108.575C61.7102 108.652 61.7416 108.725 61.7931 108.782L63.0333 110.209C63.0916 110.266 63.1289 110.341 63.1393 110.422C63.1497 110.503 63.1325 110.586 63.0905 110.656C63.0486 110.726 62.9843 110.78 62.9079 110.809C62.8315 110.839 62.7474 110.842 62.6692 110.818Z" fill="#D33943"/>
<path opacity="0.1" d="M73.2554 108.352L71.1746 107.874C71.0906 107.856 71.0029 107.864 70.9237 107.898C70.8445 107.931 70.7779 107.989 70.7334 108.063L69.6311 109.89C69.5861 109.965 69.5186 110.024 69.4383 110.058C69.3579 110.092 69.2688 110.1 69.1837 110.081C69.0986 110.061 69.0219 110.015 68.9646 109.949C68.9074 109.884 68.8725 109.802 68.8649 109.715L68.6809 107.59C68.673 107.503 68.6381 107.422 68.581 107.356C68.5239 107.29 68.4476 107.244 68.3629 107.224L66.2798 106.748C66.1945 106.728 66.1177 106.682 66.0604 106.617C66.0031 106.551 65.9682 106.468 65.9608 106.381C65.9534 106.294 65.9738 106.207 66.0192 106.133C66.0646 106.058 66.1325 105.999 66.2132 105.966L68.18 105.131C68.2603 105.098 68.3279 105.04 68.3728 104.965C68.4177 104.891 68.4377 104.804 68.4298 104.718L68.2457 102.593C68.2381 102.506 68.2583 102.419 68.3033 102.344C68.3484 102.27 68.416 102.211 68.4964 102.177C68.5769 102.143 68.666 102.135 68.7511 102.155C68.8362 102.174 68.9128 102.22 68.9699 102.286L70.3703 103.895C70.4265 103.962 70.5029 104.01 70.5883 104.031C70.6736 104.052 70.7635 104.046 70.8449 104.012L72.8117 103.178C72.8927 103.141 72.9833 103.132 73.07 103.151C73.1567 103.17 73.2349 103.216 73.293 103.283C73.3512 103.35 73.3861 103.434 73.3928 103.522C73.3994 103.611 73.3774 103.699 73.3299 103.774L72.2276 105.601C72.1839 105.676 72.1644 105.762 72.1718 105.848C72.1792 105.934 72.2131 106.015 72.2689 106.081L73.6687 107.688C73.7236 107.754 73.7563 107.836 73.762 107.922C73.7678 108.008 73.7463 108.094 73.7007 108.167C73.6551 108.241 73.5876 108.298 73.5077 108.331C73.4278 108.364 73.3396 108.371 73.2554 108.352Z" fill="black"/>
<path d="M72.8861 108.052L71.0477 107.624C70.9722 107.607 70.8932 107.615 70.822 107.645C70.7507 107.675 70.6907 107.727 70.6505 107.793L69.6722 109.415C69.6322 109.481 69.5723 109.533 69.501 109.563C69.4298 109.593 69.3508 109.6 69.2755 109.582C69.2003 109.565 69.1325 109.524 69.082 109.466C69.0315 109.407 69.0009 109.334 68.9946 109.258L68.8295 107.375C68.8232 107.299 68.7924 107.226 68.7417 107.167C68.691 107.109 68.6229 107.069 68.5474 107.052L66.709 106.624C66.6331 106.607 66.5647 106.567 66.5136 106.508C66.4625 106.45 66.4313 106.377 66.4247 106.3C66.418 106.223 66.4362 106.145 66.4766 106.079C66.517 106.013 66.5774 105.961 66.6492 105.931L68.3931 105.191C68.4644 105.161 68.5243 105.11 68.5644 105.044C68.6044 104.978 68.6225 104.901 68.6161 104.824L68.4533 102.942C68.4464 102.865 68.464 102.788 68.5036 102.722C68.5432 102.655 68.6028 102.603 68.6737 102.573C68.7447 102.543 68.8235 102.535 68.8988 102.552C68.9741 102.569 69.042 102.61 69.0929 102.668L70.336 104.096C70.3868 104.154 70.4548 104.194 70.5301 104.211C70.6055 104.229 70.6844 104.221 70.7555 104.191L72.4993 103.451C72.5706 103.42 72.6497 103.413 72.7253 103.43C72.8009 103.448 72.8691 103.488 72.9199 103.547C72.9708 103.605 73.0017 103.678 73.0082 103.755C73.0148 103.832 72.9966 103.909 72.9563 103.975L71.9597 105.603C71.9199 105.669 71.9021 105.745 71.9087 105.822C71.9153 105.899 71.946 105.971 71.9965 106.029L73.239 107.455C73.2877 107.513 73.3171 107.585 73.3233 107.661C73.3294 107.736 73.3119 107.812 73.2733 107.877C73.2346 107.943 73.1766 107.995 73.1073 108.026C73.038 108.057 72.9607 108.066 72.8861 108.052Z" fill="#D33943"/>
<path opacity="0.1" d="M83.4724 105.585L81.3916 105.108C81.3077 105.089 81.2199 105.097 81.1407 105.131C81.0616 105.165 80.995 105.223 80.9504 105.296L79.8481 107.124C79.8032 107.199 79.7357 107.257 79.6553 107.291C79.5749 107.326 79.4858 107.333 79.4007 107.314C79.3156 107.295 79.2389 107.249 79.1817 107.183C79.1244 107.117 79.0895 107.035 79.082 106.948L78.8979 104.823C78.89 104.737 78.8551 104.655 78.798 104.59C78.741 104.524 78.6647 104.478 78.5799 104.458L76.4991 103.981C76.414 103.961 76.3372 103.916 76.2798 103.85C76.2224 103.784 76.1873 103.702 76.1797 103.615C76.172 103.529 76.1922 103.441 76.2372 103.367C76.2822 103.292 76.3498 103.233 76.4303 103.199L78.397 102.365C78.4775 102.331 78.5452 102.273 78.5904 102.198C78.6357 102.124 78.6562 102.037 78.6491 101.95L78.4628 99.8262C78.4552 99.7394 78.4753 99.6524 78.5204 99.5777C78.5654 99.503 78.633 99.4444 78.7135 99.4104C78.7939 99.3763 78.8831 99.3686 78.9681 99.3882C79.0532 99.4078 79.1298 99.4539 79.1869 99.5197L80.5873 101.129C80.644 101.196 80.7208 101.244 80.8066 101.265C80.8924 101.286 80.9826 101.279 81.0642 101.245L83.031 100.41C83.112 100.375 83.2023 100.366 83.2886 100.385C83.3749 100.405 83.4527 100.451 83.5104 100.518C83.5682 100.585 83.6029 100.668 83.6095 100.756C83.6161 100.845 83.5942 100.932 83.547 101.007L82.4447 102.835C82.401 102.909 82.3815 102.995 82.3889 103.081C82.3963 103.167 82.4302 103.249 82.4859 103.314L83.8857 104.921C83.9407 104.988 83.9733 105.07 83.9791 105.156C83.9848 105.242 83.9634 105.327 83.9178 105.401C83.8721 105.474 83.8046 105.531 83.7247 105.564C83.6448 105.597 83.5566 105.605 83.4724 105.585Z" fill="black"/>
<path d="M83.1032 105.285L81.2648 104.858C81.1892 104.841 81.1103 104.848 81.039 104.878C80.9678 104.909 80.9078 104.96 80.8675 105.026L79.8916 106.648C79.8511 106.714 79.791 106.765 79.7198 106.795C79.6485 106.824 79.5698 106.831 79.4946 106.814C79.4195 106.796 79.3517 106.756 79.3009 106.698C79.2502 106.64 79.2189 106.568 79.2116 106.491L79.0489 104.608C79.0422 104.531 79.0113 104.459 78.9606 104.401C78.9099 104.342 78.8421 104.302 78.7668 104.285L76.9283 103.857C76.8536 103.839 76.7864 103.798 76.7364 103.739C76.6863 103.681 76.6559 103.609 76.6493 103.532C76.6427 103.456 76.6603 103.379 76.6997 103.313C76.739 103.247 76.7981 103.195 76.8686 103.164L78.6125 102.424C78.684 102.395 78.7441 102.343 78.7842 102.277C78.8243 102.211 78.8423 102.134 78.8355 102.057L78.6727 100.174C78.6649 100.097 78.6821 100.019 78.7217 99.9523C78.7613 99.8854 78.8213 99.8328 78.8929 99.8022C78.9645 99.7715 79.044 99.7645 79.1199 99.7821C79.1957 99.7997 79.2639 99.841 79.3145 99.8999L80.5554 101.329C80.6062 101.387 80.6741 101.427 80.7495 101.444C80.8249 101.461 80.9038 101.454 80.9748 101.424L82.721 100.683C82.7922 100.653 82.8711 100.647 82.9463 100.664C83.0215 100.682 83.0893 100.722 83.1397 100.781C83.1902 100.839 83.2209 100.912 83.2274 100.989C83.2338 101.065 83.2157 101.142 83.1757 101.208L82.1997 102.83C82.1599 102.896 82.1421 102.973 82.1487 103.049C82.1553 103.126 82.1861 103.199 82.2365 103.257L83.4791 104.683C83.5342 104.742 83.5684 104.817 83.5761 104.897C83.5839 104.978 83.565 105.059 83.5222 105.127C83.4794 105.196 83.4152 105.248 83.3395 105.277C83.2637 105.305 83.1807 105.308 83.1032 105.285Z" fill="#D33943"/>
<path opacity="0.1" d="M93.6918 102.818L91.611 102.341C91.527 102.322 91.4394 102.331 91.3603 102.365C91.2812 102.398 91.2146 102.456 91.1698 102.529L90.0675 104.357C90.0239 104.434 89.9564 104.496 89.8749 104.532C89.7935 104.568 89.7025 104.577 89.6156 104.558C89.5286 104.538 89.4504 104.491 89.3925 104.424C89.3346 104.356 89.3002 104.272 89.2945 104.183L89.1104 102.058C89.1025 101.972 89.0676 101.89 89.0105 101.824C88.9535 101.759 88.8772 101.713 88.7924 101.693L86.7116 101.215C86.6265 101.196 86.5497 101.15 86.4923 101.085C86.4349 101.019 86.3998 100.937 86.3922 100.85C86.3845 100.763 86.4047 100.676 86.4497 100.601C86.4947 100.527 86.5623 100.468 86.6427 100.434L88.6095 99.5995C88.6902 99.566 88.7581 99.5078 88.8034 99.4333C88.8487 99.3588 88.8691 99.2719 88.8616 99.1851L88.6775 97.0603C88.6691 96.9735 88.6888 96.8862 88.7335 96.8112C88.7782 96.7362 88.8458 96.6773 88.9263 96.6432C89.0068 96.6091 89.0961 96.6015 89.1812 96.6215C89.2663 96.6415 89.3428 96.688 89.3994 96.7544L90.8021 98.3627C90.8579 98.4307 90.9343 98.4788 91.0198 98.4999C91.1054 98.521 91.1955 98.5139 91.2767 98.4796L93.2435 97.6452C93.3245 97.6095 93.4148 97.6007 93.5011 97.6201C93.5874 97.6395 93.6652 97.686 93.7229 97.7528C93.7807 97.8196 93.8154 97.9032 93.822 97.9912C93.8286 98.0792 93.8066 98.1671 93.7594 98.2418L92.6571 100.069C92.6135 100.144 92.594 100.23 92.6014 100.316C92.6088 100.402 92.6427 100.483 92.6984 100.549L94.0982 102.156C94.153 102.222 94.1857 102.303 94.1918 102.388C94.198 102.473 94.1772 102.559 94.1324 102.632C94.0875 102.705 94.021 102.762 93.942 102.795C93.863 102.829 93.7755 102.837 93.6918 102.818Z" fill="black"/>
<path d="M93.3203 102.519L91.4818 102.091C91.4063 102.074 91.3273 102.082 91.2561 102.112C91.1849 102.142 91.1249 102.194 91.0846 102.26L90.1086 103.882C90.0682 103.947 90.0081 103.998 89.9368 104.028C89.8656 104.058 89.7868 104.065 89.7117 104.047C89.6365 104.03 89.5688 103.989 89.518 103.931C89.4672 103.873 89.436 103.801 89.4287 103.724L89.2659 101.842C89.2596 101.765 89.2289 101.692 89.1781 101.634C89.1274 101.576 89.0593 101.535 88.9838 101.518L87.1454 101.091C87.0697 101.074 87.0013 101.033 86.9501 100.975C86.8989 100.917 86.8676 100.844 86.8607 100.767C86.8538 100.69 86.8716 100.613 86.9117 100.546C86.9517 100.48 87.0118 100.428 87.0834 100.398L88.8296 99.6577C88.9007 99.628 88.9605 99.5765 89.0002 99.5105C89.0399 99.4445 89.0575 99.3677 89.0502 99.2911L88.8874 97.4085C88.8813 97.3318 88.8995 97.255 88.9393 97.1891C88.9792 97.1232 89.0389 97.0715 89.1098 97.0411C89.1807 97.0108 89.2594 97.0035 89.3346 97.0201C89.4099 97.0368 89.478 97.0766 89.5293 97.134L90.7724 98.5622C90.8228 98.6201 90.8903 98.6607 90.9653 98.6778C91.0403 98.695 91.1188 98.688 91.1896 98.6578L92.9358 97.9175C93.007 97.8868 93.0862 97.8795 93.1618 97.8967C93.2374 97.9138 93.3055 97.9545 93.3564 98.0129C93.4072 98.0712 93.4381 98.1442 93.4447 98.2213C93.4512 98.2984 93.433 98.3756 93.3927 98.4417L92.4145 100.064C92.3747 100.13 92.3568 100.207 92.3634 100.283C92.3701 100.36 92.4008 100.433 92.4513 100.491L93.6938 101.917C93.7482 101.976 93.7818 102.051 93.7893 102.131C93.7969 102.21 93.7781 102.29 93.7358 102.359C93.6934 102.427 93.6299 102.479 93.5549 102.508C93.4799 102.537 93.3975 102.541 93.3203 102.519Z" fill="#D33943"/>
<path opacity="0.1" d="M103.909 100.052L101.828 99.5743C101.744 99.556 101.656 99.5643 101.577 99.598C101.498 99.6317 101.432 99.6892 101.387 99.7625L100.284 101.59C100.24 101.665 100.173 101.725 100.092 101.759C100.012 101.794 99.9225 101.802 99.8373 101.782C99.752 101.762 99.6754 101.716 99.6184 101.65C99.5614 101.584 99.5271 101.501 99.5206 101.414L99.3342 99.2898C99.3274 99.2029 99.2929 99.1205 99.2356 99.0547C99.1784 98.989 99.1015 98.9432 99.0162 98.9243L96.9354 98.447C96.8502 98.4276 96.7734 98.3816 96.716 98.3157C96.6587 98.2499 96.6238 98.1675 96.6164 98.0806C96.609 97.9936 96.6295 97.9065 96.6748 97.8318C96.7202 97.7571 96.7881 97.6987 96.8689 97.6649L98.8356 96.8305C98.9157 96.7967 98.9831 96.7384 99.028 96.6641C99.0728 96.5898 99.0929 96.5032 99.0854 96.4168L98.9013 94.292C98.8938 94.2052 98.9139 94.1182 98.959 94.0434C99.004 93.9687 99.0716 93.9101 99.1521 93.8761C99.2325 93.842 99.3217 93.8343 99.4067 93.8539C99.4918 93.8736 99.5684 93.9196 99.6255 93.9854L101.026 95.5943C101.082 95.662 101.158 95.7099 101.244 95.7309C101.329 95.752 101.419 95.7451 101.501 95.7113L103.467 94.8768C103.548 94.8412 103.639 94.8324 103.725 94.8517C103.811 94.8711 103.889 94.9176 103.947 94.9844C104.005 95.0512 104.039 95.1348 104.046 95.2228C104.052 95.3109 104.03 95.3987 103.983 95.4734L102.883 97.3004C102.839 97.3747 102.819 97.4609 102.826 97.547C102.834 97.6331 102.868 97.7146 102.925 97.7801L104.324 99.3868C104.38 99.4534 104.413 99.5358 104.419 99.6223C104.425 99.7088 104.403 99.795 104.357 99.8687C104.311 99.9423 104.243 99.9996 104.162 100.032C104.082 100.065 103.993 100.072 103.909 100.052Z" fill="black"/>
<path d="M103.54 99.7514L101.701 99.3239C101.626 99.3072 101.547 99.3145 101.477 99.3447C101.406 99.3749 101.346 99.4265 101.306 99.4922L100.328 101.114C100.287 101.18 100.227 101.231 100.156 101.261C100.085 101.291 100.006 101.297 99.931 101.28C99.8558 101.263 99.7881 101.222 99.7373 101.164C99.6865 101.106 99.6553 101.034 99.648 100.957L99.4852 99.0747C99.4789 98.9977 99.4481 98.9249 99.3974 98.8666C99.3467 98.8084 99.2786 98.7679 99.2031 98.751L97.3647 98.3235C97.2888 98.3066 97.2204 98.266 97.1693 98.2077C97.1182 98.1494 97.087 98.0763 97.0804 97.999C97.0737 97.9218 97.0919 97.8444 97.1323 97.7781C97.1727 97.7118 97.2331 97.66 97.305 97.6303L99.0488 96.8906C99.1201 96.8606 99.18 96.809 99.2201 96.743C99.2601 96.6771 99.2782 96.6002 99.2718 96.5234L99.1067 94.6413C99.1006 94.5646 99.1187 94.4879 99.1586 94.422C99.1985 94.3561 99.2581 94.3043 99.3291 94.274C99.4 94.2437 99.4786 94.2363 99.5539 94.253C99.6292 94.2697 99.6973 94.3095 99.7486 94.3669L100.992 95.795C101.043 95.8531 101.11 95.8936 101.186 95.9107C101.261 95.9277 101.34 95.9205 101.411 95.8901L103.155 95.1504C103.226 95.1197 103.305 95.1124 103.381 95.1296C103.457 95.1467 103.525 95.1874 103.576 95.2457C103.626 95.3041 103.657 95.3771 103.664 95.4541C103.671 95.5312 103.652 95.6084 103.612 95.6746L102.636 97.2962C102.595 97.3618 102.577 97.4389 102.583 97.5158C102.59 97.5928 102.621 97.6655 102.673 97.7231L103.913 99.1496C103.97 99.2079 104.005 99.2834 104.014 99.3641C104.022 99.4448 104.004 99.5261 103.961 99.5952C103.918 99.6642 103.853 99.7171 103.777 99.7454C103.701 99.7737 103.617 99.7758 103.54 99.7514Z" fill="#D33943"/>
<path opacity="0.1" d="M69.5839 75.0155C70.6867 74.7197 71.8603 74.8494 72.8704 75.3789C73.8804 75.9084 74.6528 76.7987 75.0332 77.8721C75.0035 77.7623 74.9851 77.6397 74.9572 77.5367C74.6435 76.3783 73.8813 75.3923 72.8382 74.7956C71.7951 74.1989 70.5566 74.0403 69.3951 74.3548C68.2337 74.6693 67.2443 75.4311 66.6448 76.4726C66.0453 77.5141 65.8848 78.75 66.1984 79.9084C66.2288 80.0205 66.2603 80.1371 66.302 80.2363C66.0882 79.1143 66.3078 77.9527 66.9164 76.9844C67.5251 76.0161 68.478 75.3128 69.5839 75.0155Z" fill="black"/>
</g>
<defs>
<clipPath id="clip0_29_198">
<rect width="114.021" height="177.716" fill="white" transform="translate(0 29.8009) rotate(-15.151)"/>
</clipPath>
</defs>
</svg>
