<svg width="841" height="668" viewBox="0 0 841 668" fill="none" xmlns="http://www.w3.org/2000/svg">
<path opacity="0.1" d="M840.236 538.625C840.213 577.402 831.777 615.713 815.51 650.914C799.243 686.114 775.533 717.366 746.015 742.514C716.497 767.661 681.875 786.105 644.537 796.573C607.199 807.04 568.035 809.283 529.746 803.145H105.036C88.6321 805.396 72.0938 806.525 55.5361 806.525C43.6494 806.525 31.9061 805.958 20.3061 804.825C-68.9467 796.159 -151.769 754.551 -212.002 688.119C-272.234 621.687 -305.555 535.197 -305.464 445.525C-305.464 246.145 -143.834 84.5248 55.5361 84.5248C216.106 84.5248 352.166 189.365 399.056 334.325C447.424 293.175 508.882 270.624 572.386 270.725C720.296 270.725 840.236 390.665 840.236 538.625Z" fill="#D33943"/>
<path opacity="0.1" d="M737.326 749.695C708.257 772.392 674.821 788.853 639.106 798.049C603.39 807.246 566.162 808.98 529.746 803.145H105.036C88.6322 805.396 72.0938 806.525 55.5361 806.525C43.6495 806.525 31.9062 805.958 20.3062 804.825C-50.0307 797.926 -116.798 770.543 -171.723 726.067C-226.649 681.592 -267.319 621.979 -288.694 554.615C-254.114 480.725 -165.274 428.145 -61.1138 428.145C40.3862 428.145 127.386 478.085 163.696 549.015C181.576 545.763 199.713 544.133 217.886 544.145C323.086 544.145 412.656 597.815 446.476 672.815C474.491 664.323 503.612 660.04 532.886 660.105C618.686 660.145 694.096 695.815 737.326 749.695Z" fill="#D33943"/>
<path d="M306.046 566.575C305.643 571.912 304.051 577.092 301.386 581.735C304.56 587.411 306.227 593.806 306.227 600.31C306.227 606.813 304.56 613.208 301.386 618.885C303.695 622.888 305.2 627.304 305.816 631.885L292.436 654.885L306.006 641.455C305.531 646.59 303.955 651.563 301.386 656.035C304.56 661.713 306.227 668.11 306.227 674.615C306.227 681.12 304.56 687.517 301.386 693.195C304.56 698.871 306.227 705.266 306.227 711.77C306.227 718.273 304.56 724.668 301.386 730.345C304.615 735.997 306.285 742.405 306.226 748.915C306.226 765.705 295.836 779.305 283.006 779.305C282.646 779.305 282.296 779.305 281.936 779.305C274.823 778.875 267.69 778.875 260.576 779.305C260.226 779.305 259.856 779.305 259.506 779.305C259.156 779.305 258.796 779.305 258.436 779.305C251.323 778.875 244.19 778.875 237.076 779.305C236.726 779.305 236.356 779.305 236.006 779.305C223.186 779.305 212.786 765.705 212.786 748.915C212.721 742.403 214.395 735.993 217.636 730.345C214.394 724.711 212.709 718.315 212.756 711.815C212.758 709.403 212.983 706.996 213.426 704.625L232.016 716.165L215.236 698.215C215.878 696.482 216.671 694.809 217.606 693.215C214.425 687.539 212.754 681.141 212.754 674.635C212.754 668.128 214.425 661.731 217.606 656.055C214.427 650.38 212.757 643.984 212.757 637.48C212.757 630.975 214.427 624.579 217.606 618.905C214.704 613.861 213.064 608.189 212.826 602.375L244.676 622.135L214.256 589.615C215.042 586.866 216.168 584.226 217.606 581.755C215.428 578.01 213.964 573.894 213.286 569.615C212.931 567.49 212.753 565.339 212.756 563.185C212.691 556.67 214.365 550.256 217.606 544.605C214.365 538.957 212.691 532.546 212.756 526.035C212.756 509.245 223.156 495.635 235.976 495.635C240.249 495.68 244.384 497.151 247.726 499.815C251.045 497.11 255.195 495.633 259.476 495.633C263.757 495.633 267.907 497.11 271.226 499.815C274.567 497.15 278.703 495.679 282.976 495.635C295.806 495.635 306.196 509.245 306.196 526.035C306.261 532.535 304.601 538.935 301.386 544.585C304.615 550.241 306.285 556.652 306.226 563.165C306.196 564.315 306.146 565.455 306.046 566.575Z" fill="#3F3D56"/>
<path opacity="0.1" d="M301.386 544.585C304.615 550.241 306.285 556.652 306.226 563.165C306.226 564.315 306.226 565.455 306.076 566.575C290.609 561.222 276.531 552.486 264.866 541.005C250.604 555.047 232.78 564.932 213.316 569.595C212.961 567.47 212.783 565.319 212.786 563.165C212.721 556.65 214.395 550.236 217.636 544.585C214.395 538.937 212.721 532.526 212.786 526.015C212.786 509.225 223.186 495.615 236.006 495.615C240.271 495.673 244.395 497.151 247.726 499.815C251.045 497.11 255.195 495.633 259.476 495.633C263.757 495.633 267.907 497.11 271.226 499.815C274.567 497.15 278.703 495.679 282.976 495.635C295.806 495.635 306.196 509.245 306.196 526.035C306.261 532.535 304.601 538.935 301.386 544.585Z" fill="black"/>
<path d="M525.046 416.595L580.536 389.925C569.195 371.622 552.76 357.025 533.246 347.925C533.556 344.535 533.726 341.105 533.726 337.635C533.748 324.385 531.377 311.241 526.726 298.835L457.126 273.815L457.376 273.305L516.296 278.155C504.585 259.935 487.789 245.548 467.986 236.775C468.423 232.766 468.643 228.737 468.646 224.705C468.665 210.071 465.762 195.581 460.106 182.085L427.106 214.755L453.676 169.145C449.26 161.597 443.967 154.598 437.906 148.295L403.606 182.225L428.466 139.545C416.9 130.007 403.506 122.935 389.106 118.765C385.037 103.431 377.715 89.1529 367.636 76.9016C357.557 64.6502 344.958 54.7127 330.696 47.7648L282.496 95.4448L314.036 41.2848C299.966 37.0941 285.2 35.7532 270.605 37.3407C256.01 38.9282 241.878 43.4121 229.037 50.5299C216.197 57.6477 204.906 67.2562 195.825 78.7927C186.745 90.3291 180.058 103.561 176.156 117.715C156.092 122.738 137.849 133.312 123.516 148.225L162.186 184.995L114.336 159.065C100.243 178.041 92.6498 201.058 92.6861 224.695C92.6861 226.255 92.6861 227.805 92.7961 229.355C67.2371 234.227 44.228 247.99 27.8461 268.205L59.1561 297.975L21.1561 277.375C9.42113 295.29 3.18489 316.248 3.21606 337.665C3.21606 338.945 3.21608 340.215 3.29608 341.485C-14.1287 346.198 -30.1258 355.127 -43.2839 367.485L-1.39392 407.305L-53.8439 378.885C-69.5893 398.432 -78.1588 422.785 -78.1239 447.885C-78.1239 449.445 -78.1239 450.995 -78.0139 452.545L-25.7939 502.185L-74.6139 475.815C-69.7129 494.573 -59.9532 511.708 -46.3186 525.492C-32.684 539.276 -15.6565 549.221 3.04736 554.326C21.7513 559.431 41.4704 559.515 60.217 554.569C78.9636 549.623 96.0749 539.822 109.826 526.155C130.404 546.613 158.219 558.132 187.236 558.215C216.253 558.297 244.132 546.936 264.826 526.595C284.613 546.026 310.996 557.286 338.716 558.129C366.436 558.973 393.455 549.337 414.386 531.145C433.209 547.495 457.016 556.985 481.924 558.067C506.833 559.149 531.373 551.76 551.543 537.104C571.713 522.449 586.322 501.391 592.987 477.366C599.653 453.342 597.982 427.768 588.246 404.815L525.046 416.595Z" fill="#D33943"/>
<path opacity="0.1" d="M543.196 454.975C519.856 466.815 491.886 457.505 467.246 448.685C435.006 437.135 402.056 426.555 367.956 423.315C333.856 420.075 298.196 424.625 268.526 441.735C250.806 451.955 235.526 466.415 216.706 474.465C163.656 497.175 101.326 462.885 45.4461 477.275C12.5661 485.735 -12.3939 509.195 -36.7539 533.995C-15.6161 550.914 11.0098 559.461 38.0458 558.006C65.0818 556.55 90.6364 545.195 109.836 526.105C130.414 546.563 158.229 558.082 187.246 558.165C216.263 558.247 244.142 546.885 264.836 526.545C284.616 545.98 310.994 557.248 338.711 558.1C366.429 558.953 393.449 549.328 414.386 531.145C430.354 545.014 449.974 553.999 470.906 557.027C491.838 560.056 513.2 557.001 532.444 548.226C551.688 539.451 568.003 525.328 579.443 507.538C590.883 489.749 596.966 469.045 596.966 447.895C596.963 441.058 596.331 434.236 595.076 427.515C584.903 429.221 575.192 433.014 566.556 438.655C558.646 443.895 551.686 450.665 543.196 454.975Z" fill="black"/>
<path opacity="0.1" d="M185.776 119.655C208.776 124.975 231.346 133.745 249.596 148.655C267.846 163.565 281.386 185.265 283.006 208.815" fill="black"/>
<path opacity="0.1" d="M332.386 318.815C340.996 296.865 352.946 275.815 370.386 259.885C387.826 243.955 411.206 233.755 434.706 235.555" fill="black"/>
<path opacity="0.1" d="M34.2861 339.615C57.7761 341.535 81.4161 346.915 101.646 359.025C121.876 371.135 138.426 390.585 143.466 413.625" fill="black"/>
<path d="M162.256 201.155C171.242 201.155 178.526 193.87 178.526 184.885C178.526 175.899 171.242 168.615 162.256 168.615C153.27 168.615 145.986 175.899 145.986 184.885C145.986 193.87 153.27 201.155 162.256 201.155Z" fill="#FF6F61"/>
<path d="M178.526 131.555C187.512 131.555 194.796 124.27 194.796 115.285C194.796 106.299 187.512 99.0148 178.526 99.0148C169.54 99.0148 162.256 106.299 162.256 115.285C162.256 124.27 169.54 131.555 178.526 131.555Z" fill="#FF6F61"/>
<path d="M92.6561 240.915C101.642 240.915 108.926 233.63 108.926 224.645C108.926 215.659 101.642 208.375 92.6561 208.375C83.6704 208.375 76.3861 215.659 76.3861 224.645C76.3861 233.63 83.6704 240.915 92.6561 240.915Z" fill="#FF6F61"/>
<path d="M389.116 131.555C398.102 131.555 405.386 124.27 405.386 115.285C405.386 106.299 398.102 99.0148 389.116 99.0148C380.13 99.0148 372.846 106.299 372.846 115.285C372.846 124.27 380.13 131.555 389.116 131.555Z" fill="#FF6F61"/>
<path d="M459.606 201.155C468.592 201.155 475.876 193.87 475.876 184.885C475.876 175.899 468.592 168.615 459.606 168.615C450.62 168.615 443.336 175.899 443.336 184.885C443.336 193.87 450.62 201.155 459.606 201.155Z" fill="#FF6F61"/>
<path d="M526.496 315.035C535.482 315.035 542.766 307.75 542.766 298.765C542.766 289.779 535.482 282.495 526.496 282.495C517.51 282.495 510.226 289.779 510.226 298.765C510.226 307.75 517.51 315.035 526.496 315.035Z" fill="#FF6F61"/>
<path d="M587.956 429.815C596.942 429.815 604.226 422.53 604.226 413.545C604.226 404.559 596.942 397.275 587.956 397.275C578.97 397.275 571.686 404.559 571.686 413.545C571.686 422.53 578.97 429.815 587.956 429.815Z" fill="#FF6F61"/>
<path d="M414.416 547.315C423.402 547.315 430.686 540.03 430.686 531.045C430.686 522.059 423.402 514.775 414.416 514.775C405.43 514.775 398.146 522.059 398.146 531.045C398.146 540.03 405.43 547.315 414.416 547.315Z" fill="#FF6F61"/>
<path d="M109.836 547.315C118.822 547.315 126.106 540.03 126.106 531.045C126.106 522.059 118.822 514.775 109.836 514.775C100.85 514.775 93.5662 522.059 93.5662 531.045C93.5662 540.03 100.85 547.315 109.836 547.315Z" fill="#FF6F61"/>
<path d="M277.036 221.035C286.022 221.035 293.306 213.75 293.306 204.765C293.306 195.779 286.022 188.495 277.036 188.495C268.05 188.495 260.766 195.779 260.766 204.765C260.766 213.75 268.05 221.035 277.036 221.035Z" fill="#FF6F61"/>
<path d="M332.176 331.305C341.162 331.305 348.446 324.02 348.446 315.035C348.446 306.049 341.162 298.765 332.176 298.765C323.19 298.765 315.906 306.049 315.906 315.035C315.906 324.02 323.19 331.305 332.176 331.305Z" fill="#FF6F61"/>
<path d="M555.416 550.025C564.402 550.025 571.686 542.74 571.686 533.755C571.686 524.769 564.402 517.485 555.416 517.485C546.43 517.485 539.146 524.769 539.146 533.755C539.146 542.74 546.43 550.025 555.416 550.025Z" fill="#FF6F61"/>
<path d="M142.366 424.395C151.352 424.395 158.636 417.11 158.636 408.125C158.636 399.139 151.352 391.855 142.366 391.855C133.38 391.855 126.096 399.139 126.096 408.125C126.096 417.11 133.38 424.395 142.366 424.395Z" fill="#FF6F61"/>
<path d="M283.366 108.965C292.352 108.965 299.636 101.68 299.636 92.6948C299.636 83.7091 292.352 76.4248 283.366 76.4248C274.38 76.4248 267.096 83.7091 267.096 92.6948C267.096 101.68 274.38 108.965 283.366 108.965Z" fill="#FF6F61"/>
<path d="M3.17615 355.705C12.1618 355.705 19.4461 348.42 19.4461 339.435C19.4461 330.449 12.1618 323.165 3.17615 323.165C-5.80953 323.165 -13.0939 330.449 -13.0939 339.435C-13.0939 348.42 -5.80953 355.705 3.17615 355.705Z" fill="#FF6F61"/>
<path d="M509.386 357.865C506.866 357.505 503.916 356.215 501.386 356.255C498.856 356.295 496.966 363.935 494.456 364.325C491.946 364.715 488.716 360.935 486.266 361.645C483.816 362.355 482.716 366.455 480.366 367.425C478.016 368.395 475.206 367.905 472.966 369.095C470.726 370.285 469.836 373.375 467.726 374.755C465.616 376.135 461.726 374.915 459.726 376.465C457.726 378.015 457.006 381.045 455.086 382.705C453.166 384.365 448.376 382.875 446.536 384.625C444.696 386.375 441.846 387.225 440.066 389.035C438.286 390.845 438.856 394.965 437.066 396.805C435.276 398.645 433.746 400.655 432.066 402.505" fill="#EDEDF4"/>
<path d="M173.946 335.625C172.706 333.395 171.946 330.215 170.426 328.225C168.906 326.235 161.426 329.545 159.566 327.785C157.706 326.025 158.936 321.025 156.896 319.505C154.856 317.985 150.836 319.695 148.646 318.415C146.456 317.135 145.186 314.525 142.886 313.415C140.586 312.305 137.566 313.585 135.186 312.745C132.806 311.905 131.506 307.965 129.066 307.295C126.626 306.625 123.756 307.965 121.276 307.445C118.796 306.925 117.126 302.005 114.616 301.605C112.106 301.205 109.716 299.365 107.196 299.035C104.676 298.705 101.726 301.795 99.1961 301.525C96.6661 301.255 94.1161 301.205 91.6061 300.945" fill="#EDEDF4"/>
<path d="M232.526 408.815C233.936 406.535 237.706 404.555 240.286 403.815C242.866 403.075 246.106 404.175 248.656 404.395C251.206 404.615 253.726 406.595 256.326 406.845C258.926 407.095 262.436 409.205 264.996 408.535C267.512 407.732 269.96 406.729 272.316 405.535C274.726 404.445 275.776 400.195 278.316 399.485C280.856 398.775 284.316 402.885 286.876 402.485C289.436 402.085 291.276 396.625 293.876 396.345C296.476 396.065 299.206 396.545 301.876 396.345C303.806 396.185 304.506 400.065 306.326 400.705C308.856 401.595 314.566 397.965 316.256 400.155C317.946 402.345 317.256 405.835 319.756 406.705" fill="#EDEDF4"/>
<path d="M277.036 195.245C279.203 195.141 281.363 195.545 283.346 196.425C285.476 197.425 288.346 197.335 289.906 199.095C291.466 200.855 291.736 203.735 292.396 206.005C292.806 204.575 294.666 202.725 294.666 201.155C294.666 198.945 292.806 196.875 292.006 194.955C291.252 192.948 290.11 191.11 288.646 189.545C287.146 188.045 285.866 185.455 283.886 184.635C281.906 183.815 279.246 184.975 277.036 184.975C274.906 184.946 272.792 185.34 270.816 186.135C268.816 186.955 266.146 187.265 264.646 188.755C263.146 190.245 262.956 192.985 262.126 194.975C261.296 196.965 262.356 198.975 262.356 201.155C262.356 202.725 260.356 203.395 260.756 204.825C261.346 202.615 262.422 200.565 263.906 198.825C265.503 196.89 267.472 195.295 269.696 194.135C271.766 193.225 274.616 195.245 277.036 195.245Z" fill="#EDEDF4"/>
<path d="M414.386 519.715C416.553 519.611 418.713 520.015 420.696 520.895C422.826 521.895 425.696 521.805 427.256 523.565C428.816 525.325 429.086 528.205 429.746 530.485C430.156 529.045 432.016 527.195 432.016 525.625C432.016 523.415 430.156 521.345 429.356 519.425C428.602 517.418 427.46 515.58 425.996 514.015C424.496 512.525 423.216 509.935 421.236 509.105C419.256 508.275 416.596 509.445 414.386 509.445C412.256 509.416 410.142 509.81 408.166 510.605C406.166 511.425 403.496 511.735 401.996 513.235C400.496 514.735 400.306 517.465 399.476 519.445C398.646 521.425 399.706 523.445 399.706 525.625C399.706 527.195 397.706 527.865 398.106 529.295C398.698 527.086 399.774 525.036 401.256 523.295C402.857 521.36 404.829 519.766 407.056 518.605C409.146 517.705 411.996 519.715 414.386 519.715Z" fill="#EDEDF4"/>
<path d="M555.386 519.715C557.549 519.611 559.707 520.015 561.686 520.895C563.826 521.895 566.686 521.805 568.256 523.565C569.826 525.325 570.086 528.205 570.736 530.485C571.156 529.045 573.006 527.195 573.006 525.625C573.006 523.415 571.146 521.345 570.356 519.425C569.595 517.42 568.45 515.582 566.986 514.015C565.496 512.525 564.216 509.935 562.226 509.105C560.236 508.275 557.596 509.445 555.386 509.445C553.256 509.414 551.142 509.808 549.166 510.605C547.166 511.425 544.496 511.735 542.996 513.235C541.496 514.735 541.306 517.465 540.476 519.445C539.646 521.425 540.706 523.445 540.706 525.625C540.706 527.195 538.706 527.865 539.106 529.295C539.699 527.088 540.771 525.039 542.246 523.295C543.852 521.365 545.823 519.771 548.046 518.605C550.136 517.705 552.996 519.715 555.386 519.715Z" fill="#EDEDF4"/>
<path d="M135.116 397.685C136.917 396.488 138.971 395.725 141.116 395.455C143.456 395.205 145.906 393.675 148.116 394.405C150.326 395.135 152.116 397.405 153.806 399.045C153.426 397.595 154.046 395.045 153.236 393.725C152.106 391.835 149.456 390.995 147.796 389.725C146.115 388.392 144.189 387.404 142.126 386.815C140.076 386.305 137.656 384.755 135.526 385.075C133.396 385.395 131.716 387.715 129.826 388.855C127.979 389.921 126.364 391.346 125.076 393.045C123.796 394.775 121.676 396.425 121.156 398.475C120.636 400.525 121.856 402.965 122.156 405.095C122.456 407.225 124.366 408.405 125.496 410.295C126.306 411.635 124.966 413.295 126.056 414.295C125.434 412.107 125.311 409.807 125.696 407.565C126.068 405.083 126.939 402.701 128.256 400.565C129.576 398.705 133.036 398.935 135.116 397.685Z" fill="#EDEDF4"/>
<path d="M101.666 520.605C103.468 519.411 105.521 518.648 107.666 518.375C109.996 518.125 112.456 516.595 114.666 517.375C116.876 518.155 118.616 520.375 120.356 522.015C119.976 520.565 120.596 518.015 119.786 516.695C118.656 514.805 116.006 513.965 114.336 512.695C112.659 511.363 110.736 510.374 108.676 509.785C106.616 509.275 104.196 507.725 102.066 508.045C99.9361 508.365 98.2662 510.685 96.3662 511.825C94.5251 512.895 92.9141 514.319 91.6261 516.015C90.3461 517.745 88.2262 519.395 87.7062 521.445C87.1862 523.495 88.4062 525.935 88.7062 528.065C89.0062 530.195 90.9162 531.375 92.0462 533.265C92.8562 534.605 91.5062 536.215 92.6062 537.265C91.9844 535.077 91.8614 532.777 92.2461 530.535C92.6184 528.053 93.4893 525.671 94.8062 523.535C96.1362 521.625 99.5962 521.815 101.666 520.605Z" fill="#EDEDF4"/>
<path d="M0.446122 330.815C2.24707 329.618 4.30075 328.855 6.44612 328.585C8.78612 328.335 11.2461 326.805 13.4461 327.535C15.6461 328.265 17.4461 330.535 19.1361 332.165C18.7561 330.725 19.3761 328.165 18.5661 326.855C17.4361 324.965 14.7861 324.125 13.1261 322.855C11.4448 321.525 9.51814 320.54 7.45613 319.955C5.45613 319.435 2.98613 317.895 0.856126 318.215C-1.27387 318.535 -2.95389 320.855 -4.84389 321.995C-6.69061 323.061 -8.30558 324.486 -9.59389 326.185C-10.8739 327.915 -12.9939 329.555 -13.5139 331.615C-14.0339 333.675 -12.8139 336.105 -12.5139 338.235C-12.2139 340.365 -10.3039 341.535 -9.17387 343.435C-8.36387 344.775 -9.70388 346.375 -8.61388 347.435C-9.2353 345.247 -9.3583 342.947 -8.97386 340.705C-8.60157 338.223 -7.73075 335.841 -6.41386 333.705C-5.09386 331.815 -1.61388 332.045 0.446122 330.815Z" fill="#EDEDF4"/>
<path d="M89.0161 216.925C90.8186 215.731 92.8715 214.968 95.0161 214.695C97.3561 214.435 99.8161 212.915 102.016 213.645C104.216 214.375 105.966 216.645 107.706 218.275C107.316 216.835 107.936 214.275 107.136 212.965C105.996 211.075 103.356 210.235 101.686 208.965C100.007 207.637 98.0843 206.652 96.0261 206.065C93.9662 205.545 91.5461 204.005 89.4161 204.315C87.2861 204.625 85.6061 206.965 83.7161 208.095C81.8747 209.169 80.2638 210.596 78.9761 212.295C77.6961 214.015 75.5661 215.665 75.0561 217.725C74.5461 219.785 75.7561 222.215 76.0561 224.345C76.3561 226.475 78.2761 227.645 79.4061 229.535C80.2161 230.885 78.8661 232.485 79.9661 233.535C79.3464 231.346 79.22 229.048 79.5961 226.805C79.9779 224.324 80.8516 221.944 82.1661 219.805C83.4861 217.935 86.9361 218.165 89.0161 216.925Z" fill="#EDEDF4"/>
<path d="M158.606 177.155C160.408 175.961 162.461 175.198 164.606 174.925C166.936 174.675 169.396 173.145 171.606 173.875C173.816 174.605 175.556 176.875 177.296 178.505C176.916 177.065 177.536 174.505 176.726 173.195C175.596 171.305 172.946 170.465 171.276 169.195C169.6 167.864 167.676 166.878 165.616 166.295C163.566 165.775 161.136 164.235 159.016 164.555C156.896 164.875 155.206 167.195 153.306 168.335C151.465 169.405 149.854 170.829 148.566 172.525C147.286 174.255 145.166 175.895 144.646 177.955C144.126 180.015 145.346 182.445 145.646 184.575C145.946 186.705 147.856 187.875 148.986 189.775C149.796 191.115 148.456 192.715 149.546 193.775C148.925 191.587 148.802 189.287 149.186 187.045C149.558 184.563 150.429 182.181 151.746 180.045C153.076 178.165 156.536 178.395 158.606 177.155Z" fill="#EDEDF4"/>
<path d="M173.076 105.755C174.877 104.558 176.931 103.795 179.076 103.525C181.416 103.265 183.876 101.745 186.076 102.475C188.276 103.205 190.076 105.475 191.766 107.105C191.386 105.665 192.006 103.105 191.196 101.795C190.066 99.9048 187.416 99.0648 185.756 97.7948C184.075 96.4654 182.148 95.48 180.086 94.8948C178.036 94.3748 175.616 92.8348 173.486 93.1448C171.356 93.4548 169.676 95.7948 167.786 96.9248C165.942 97.9987 164.328 99.4259 163.036 101.125C161.756 102.845 159.636 104.495 159.116 106.555C158.596 108.615 159.816 111.045 160.116 113.175C160.416 115.305 162.326 116.475 163.456 118.365C164.266 119.715 162.926 121.315 164.016 122.365C163.395 120.177 163.272 117.877 163.656 115.635C164.03 113.153 164.9 110.772 166.216 108.635C167.536 106.815 170.996 106.995 173.076 105.755Z" fill="#EDEDF4"/>
<path d="M283.386 82.2648C285.549 82.1612 287.707 82.5653 289.686 83.4448C291.826 84.4448 294.736 84.3548 296.256 86.1148C297.776 87.8748 298.086 90.7548 298.736 93.0348C299.156 91.5948 301.006 89.7448 301.006 88.1748C301.006 85.9648 299.146 83.8948 298.356 81.9748C297.595 79.9697 296.45 78.1321 294.986 76.5648C293.496 75.0748 292.216 72.4848 290.226 71.6548C288.236 70.8248 285.596 71.9948 283.386 71.9948C281.256 71.9635 279.142 72.3579 277.166 73.1548C275.166 73.9748 272.486 74.2848 270.996 75.7848C269.506 77.2848 269.306 80.0148 268.476 81.9948C267.646 83.9748 268.706 85.9948 268.706 88.1748C268.706 89.7448 266.706 90.4148 267.106 91.8448C267.699 89.6381 268.771 87.5894 270.246 85.8448C271.849 83.9124 273.821 82.3182 276.046 81.1548C278.086 80.2548 280.946 82.2648 283.386 82.2648Z" fill="#EDEDF4"/>
<path d="M392.746 109.375C394.741 110.227 396.511 111.531 397.916 113.185C399.416 114.995 402.056 116.185 402.656 118.445C403.256 120.705 402.296 123.445 401.896 125.745C402.896 124.635 405.366 123.745 406.046 122.355C407.046 120.355 406.236 117.695 406.356 115.625C406.542 113.49 406.307 111.339 405.666 109.295C404.966 107.295 404.936 104.415 403.506 102.805C402.076 101.195 399.186 101.085 397.206 100.135C395.3 99.18 393.223 98.6156 391.096 98.4748C388.946 98.3548 386.396 97.4748 384.396 98.1748C382.396 98.8748 381.036 101.235 379.396 102.665C377.756 104.095 377.866 106.335 376.906 108.325C376.226 109.735 374.136 109.475 373.906 110.955C375.394 109.236 377.245 107.87 379.326 106.955C381.608 105.906 384.076 105.325 386.586 105.245C388.866 105.285 390.566 108.325 392.746 109.375Z" fill="#EDEDF4"/>
<path d="M465.956 179.875C467.95 180.724 469.72 182.025 471.126 183.675C472.626 185.495 475.266 186.675 475.866 188.945C476.466 191.215 475.506 193.945 475.106 196.245C476.106 195.135 478.576 194.245 479.256 192.855C480.256 190.855 479.446 188.195 479.566 186.115C479.751 183.983 479.517 181.836 478.876 179.795C478.176 177.795 478.146 174.915 476.716 173.305C475.286 171.695 472.396 171.585 470.416 170.625C468.508 169.678 466.431 169.118 464.306 168.975C462.156 168.845 459.606 167.975 457.606 168.665C455.606 169.355 454.246 171.735 452.606 173.165C450.966 174.595 451.076 176.835 450.116 178.825C449.436 180.235 447.346 179.975 447.116 181.455C448.605 179.737 450.456 178.371 452.536 177.455C454.82 176.414 457.288 175.836 459.796 175.755C462.076 175.815 463.776 178.815 465.956 179.875Z" fill="#EDEDF4"/>
<path d="M529.226 288.335C531.22 289.184 532.99 290.485 534.396 292.135C535.886 293.945 538.536 295.135 539.136 297.405C539.736 299.675 538.776 302.405 538.376 304.705C539.376 303.595 541.836 302.705 542.516 301.315C543.516 299.315 542.716 296.655 542.826 294.575C543.015 292.441 542.784 290.29 542.146 288.245C541.446 286.245 541.416 283.365 539.986 281.765C538.556 280.165 535.666 280.045 533.676 279.085C531.77 278.139 529.698 277.575 527.576 277.425C525.426 277.305 522.876 276.425 520.876 277.125C518.876 277.825 517.516 280.195 515.876 281.625C514.236 283.055 514.346 285.295 513.386 287.285C512.706 288.695 510.616 288.435 510.386 289.915C511.875 288.197 513.726 286.831 515.806 285.915C518.088 284.87 520.557 284.292 523.066 284.215C525.386 284.245 527.046 287.285 529.226 288.335Z" fill="#EDEDF4"/>
<path d="M334.896 308.215C336.893 309.064 338.664 310.369 340.066 312.025C341.566 313.835 344.206 315.025 344.806 317.285C345.406 319.545 344.456 322.285 344.056 324.585C345.056 323.475 347.516 322.585 348.196 321.195C349.196 319.195 348.386 316.535 348.506 314.465C348.695 312.331 348.464 310.18 347.826 308.135C347.126 306.135 347.096 303.255 345.656 301.645C344.216 300.035 341.346 299.935 339.356 298.975C337.451 298.018 335.373 297.454 333.246 297.315C331.096 297.195 328.556 296.315 326.556 297.015C324.556 297.715 323.186 300.075 321.556 301.505C319.926 302.935 320.026 305.175 319.066 307.165C318.386 308.585 316.296 308.325 316.066 309.795C317.552 308.074 319.404 306.707 321.486 305.795C323.764 304.746 326.229 304.165 328.736 304.085C331.016 304.125 332.716 307.165 334.896 308.215Z" fill="#EDEDF4"/>
<path d="M590.686 404.925C592.681 405.777 594.451 407.081 595.856 408.735C597.346 410.545 599.986 411.735 600.596 413.995C601.206 416.255 600.236 418.995 599.836 421.295C600.836 420.185 603.296 419.295 603.976 417.905C604.976 415.905 604.176 413.245 604.286 411.175C604.475 409.041 604.244 406.89 603.606 404.845C602.906 402.845 602.876 399.965 601.446 398.355C600.016 396.745 597.126 396.635 595.136 395.685C593.234 394.73 591.16 394.165 589.036 394.025C586.886 393.905 584.336 393.025 582.336 393.725C580.336 394.425 578.976 396.785 577.336 398.215C575.696 399.645 575.806 401.885 574.846 403.875C574.166 405.285 572.076 405.025 571.846 406.505C573.332 404.784 575.184 403.417 577.266 402.505C579.548 401.456 582.016 400.875 584.526 400.795C586.806 400.815 588.506 403.875 590.686 404.925Z" fill="#EDEDF4"/>
<path d="M288.576 4.64477L291.776 11.1248C292.312 12.2078 293.102 13.1448 294.079 13.8554C295.056 14.5661 296.191 15.0291 297.386 15.2048L304.536 16.2048C305.914 16.4048 307.209 16.9868 308.274 17.8846C309.339 18.7825 310.131 19.9605 310.56 21.2853C310.99 22.61 311.041 24.0287 310.706 25.3806C310.371 26.7325 309.664 27.9637 308.666 28.9348L303.496 33.9348C302.625 34.7929 301.977 35.8513 301.61 37.0175C301.242 38.1837 301.165 39.4221 301.386 40.6248L302.606 47.7448C302.84 49.1159 302.686 50.525 302.161 51.8131C301.636 53.1013 300.762 54.217 299.637 55.0345C298.511 55.852 297.18 56.3386 295.793 56.4393C294.406 56.5401 293.018 56.251 291.786 55.6048L285.386 52.2448C284.316 51.6833 283.125 51.3899 281.916 51.3899C280.707 51.3899 279.517 51.6833 278.446 52.2448L272.046 55.6048C270.814 56.251 269.427 56.5401 268.04 56.4393C266.652 56.3386 265.321 55.852 264.196 55.0345C263.07 54.217 262.196 53.1013 261.671 51.8131C261.146 50.525 260.992 49.1159 261.226 47.7448L262.386 40.6248C262.589 39.4313 262.499 38.2065 262.124 37.0553C261.75 35.9041 261.102 34.8608 260.236 34.0148L255.066 29.0148C254.068 28.0436 253.361 26.8125 253.027 25.4606C252.692 24.1087 252.742 22.69 253.172 21.3653C253.602 20.0405 254.394 18.8625 255.458 17.9646C256.523 17.0668 257.818 16.4848 259.196 16.2848L266.346 15.2848C267.543 15.1106 268.68 14.6483 269.659 13.9376C270.638 13.2269 271.43 12.2891 271.966 11.2048L275.166 4.72477C275.771 3.46464 276.719 2.39993 277.9 1.65205C279.081 0.904164 280.448 0.503193 281.846 0.494853C283.244 0.486514 284.616 0.87114 285.806 1.60488C286.996 2.33862 287.956 3.39195 288.576 4.64477Z" fill="#FEE374"/>
<path d="M492.996 663.475V679.615L491.336 682.255L488.376 686.975L485.746 691.155L479.946 700.395L479.806 700.385L402.586 696.415V680.495L402.776 680.285L411.996 670.305L415.336 666.695L421.376 660.165L492.996 663.475Z" fill="#FF6F61"/>
<path opacity="0.15" d="M492.996 663.475V679.615L479.946 700.395V684.475L492.996 663.475Z" fill="black"/>
<path d="M488.376 670.905V681.745V686.975L488.346 727.965L485.286 734.135L485.746 691.155L485.816 684.575L485.916 674.865L411.996 670.305L415.336 666.695L488.376 670.905Z" fill="#3F3D56"/>
<path d="M435.036 672.195C432.045 673.193 428.83 673.307 425.776 672.525C425.181 672.403 424.622 672.142 424.146 671.765C423.639 671.2 423.294 670.509 423.146 669.765C422.603 668.231 422.303 666.621 422.256 664.995C422.243 664.181 422.416 663.374 422.763 662.638C423.109 661.901 423.62 661.253 424.256 660.745C424.528 660.581 424.783 660.39 425.016 660.175C425.292 659.827 425.489 659.425 425.596 658.995C426.496 656.295 428.256 653.445 431.076 652.995C433.666 652.595 436.076 654.415 438.076 656.115L442.466 659.855C442.957 658.547 443.831 657.417 444.974 656.613C446.117 655.81 447.476 655.37 448.873 655.352C450.27 655.334 451.64 655.737 452.804 656.511C453.968 657.284 454.871 658.39 455.396 659.685C458.06 656.683 461.417 654.38 465.176 652.975C465.569 652.77 466.002 652.655 466.445 652.638C466.887 652.62 467.328 652.701 467.736 652.875C468.199 653.221 468.547 653.698 468.736 654.245C469.928 656.864 470.575 659.698 470.636 662.575C470.944 662.47 471.277 662.47 471.585 662.575C471.893 662.68 472.157 662.884 472.336 663.155C472.67 663.713 472.862 664.345 472.896 664.995C473.017 665.99 473.073 666.992 473.066 667.995C473.165 669.057 472.885 670.119 472.276 670.995C471.376 671.995 469.826 672.155 468.456 672.185C468.592 672.355 468.689 672.553 468.743 672.764C468.796 672.975 468.805 673.195 468.767 673.41C468.729 673.624 468.646 673.828 468.524 674.009C468.401 674.189 468.242 674.341 468.056 674.455C467.27 674.878 466.374 675.053 465.486 674.955C462.066 674.955 458.436 674.825 455.586 672.955C454.466 672.205 453.526 671.215 452.396 670.465C449.646 668.645 446.176 668.555 442.986 668.705C440.076 668.885 437.786 671.275 435.036 672.195Z" fill="#3F3D56"/>
<path d="M375.446 689.015C371.401 690.358 367.055 690.511 362.926 689.455C362.126 689.305 361.374 688.962 360.736 688.455C360.049 687.697 359.579 686.767 359.376 685.765C358.647 683.693 358.242 681.52 358.176 679.325C358.153 678.225 358.383 677.135 358.848 676.138C359.312 675.141 359.999 674.264 360.856 673.575C361.216 673.358 361.551 673.103 361.856 672.815C362.224 672.341 362.489 671.796 362.636 671.215C363.866 667.565 366.236 663.715 370.036 663.135C373.546 662.595 376.746 665.045 379.446 667.345L385.376 672.345C386.035 670.574 387.214 669.044 388.758 667.955C390.302 666.866 392.14 666.27 394.029 666.244C395.918 666.218 397.771 666.764 399.345 667.81C400.918 668.856 402.139 670.353 402.846 672.105C406.442 668.054 410.973 664.943 416.046 663.045C417.166 662.625 418.486 662.285 419.516 662.915C420.152 663.378 420.633 664.023 420.896 664.765C422.509 668.301 423.383 672.129 423.466 676.015C423.882 675.878 424.331 675.881 424.744 676.024C425.158 676.166 425.513 676.441 425.756 676.805C426.215 677.554 426.477 678.407 426.516 679.285C426.676 680.642 426.756 682.008 426.756 683.375C426.892 684.822 426.513 686.27 425.686 687.465C424.466 688.875 422.376 689.025 420.516 689.065C421.416 689.865 420.976 691.465 419.986 692.135C418.924 692.705 417.714 692.939 416.516 692.805C411.896 692.805 406.986 692.635 403.146 690.065C401.626 689.065 400.356 687.705 398.836 686.705C395.106 684.235 390.426 684.115 386.116 684.325C382.246 684.535 379.146 687.815 375.446 689.015Z" fill="#3F3D56"/>
</svg>
