<svg width="40" height="40" viewBox="0 0 40 40" fill="none" xmlns="http://www.w3.org/2000/svg">
<path d="M5.71429 0C2.5625 0 0 2.5625 0 5.71429V34.2857C0 37.4375 2.5625 40 5.71429 40H34.2857C37.4375 40 40 37.4375 40 34.2857V5.71429C40 2.5625 37.4375 0 34.2857 0H5.71429ZM11.4286 14.2857C9.84821 14.2857 8.57143 13.0089 8.57143 11.4286C8.57143 9.84821 9.84821 8.57143 11.4286 8.57143C13.0089 8.57143 14.2857 9.84821 14.2857 11.4286C14.2857 13.0089 13.0089 14.2857 11.4286 14.2857ZM14.2857 28.5714C14.2857 30.1518 13.0089 31.4286 11.4286 31.4286C9.84821 31.4286 8.57143 30.1518 8.57143 28.5714C8.57143 26.9911 9.84821 25.7143 11.4286 25.7143C13.0089 25.7143 14.2857 26.9911 14.2857 28.5714ZM20 22.8571C18.4196 22.8571 17.1429 21.5804 17.1429 20C17.1429 18.4196 18.4196 17.1429 20 17.1429C21.5804 17.1429 22.8571 18.4196 22.8571 20C22.8571 21.5804 21.5804 22.8571 20 22.8571ZM31.4286 11.4286C31.4286 13.0089 30.1518 14.2857 28.5714 14.2857C26.9911 14.2857 25.7143 13.0089 25.7143 11.4286C25.7143 9.84821 26.9911 8.57143 28.5714 8.57143C30.1518 8.57143 31.4286 9.84821 31.4286 11.4286ZM28.5714 31.4286C26.9911 31.4286 25.7143 30.1518 25.7143 28.5714C25.7143 26.9911 26.9911 25.7143 28.5714 25.7143C30.1518 25.7143 31.4286 26.9911 31.4286 28.5714C31.4286 30.1518 30.1518 31.4286 28.5714 31.4286Z" fill="#58B69B"/>
</svg>
