<svg width="270" height="459" viewBox="0 0 270 459" fill="none" xmlns="http://www.w3.org/2000/svg">
<path d="M135.167 0.438975C132.717 0.433177 130.294 0.949795 128.059 1.95438C125.824 2.95897 123.829 4.42843 122.206 6.26483C120.584 8.10123 119.372 10.2624 118.651 12.6041C117.93 14.9459 117.716 17.4145 118.024 19.8454C118.293 21.9367 118.949 23.9596 119.958 25.8113C120.304 26.4636 120.691 27.0935 121.117 27.6971C123.488 31.0006 126.949 33.3618 130.89 34.3652C134.831 35.3687 139 34.95 142.663 33.183C143.249 32.9043 143.817 32.5882 144.363 32.2367C147.504 30.2329 149.911 27.2664 151.226 23.7808C152.541 20.2951 152.692 16.4775 151.657 12.8988C150.622 9.32013 148.456 6.17254 145.484 3.92665C142.512 1.68076 138.893 0.457223 135.167 0.438975ZM135.167 15.1069C134.143 15.1069 133.142 14.8033 132.291 14.2344C131.44 13.6655 130.776 12.8569 130.384 11.9109C129.992 10.9649 129.89 9.92387 130.089 8.91957C130.289 7.91526 130.782 6.99274 131.506 6.26868C132.23 5.54462 133.153 5.05153 134.157 4.85176C135.162 4.65199 136.203 4.75452 137.149 5.14638C138.095 5.53824 138.903 6.20183 139.472 7.05324C140.041 7.90465 140.345 8.90563 140.345 9.92961C140.345 11.3027 139.799 12.6196 138.828 13.5905C137.857 14.5615 136.54 15.1069 135.167 15.1069Z" fill="#EEEFF0"/>
<path opacity="0.1" d="M121.363 8.20154L121.117 27.7245C120.69 27.1121 120.303 26.473 119.958 25.8113L121.363 8.20154Z" fill="black"/>
<path opacity="0.1" d="M144.658 8.20154L144.363 32.2984C143.817 32.6499 143.249 32.966 142.662 33.2447L144.658 8.20154Z" fill="black"/>
<path opacity="0.1" d="M152.311 19.8454C151.782 24.0136 149.751 27.8458 146.599 30.6236C143.447 33.4014 139.389 34.9339 135.188 34.9339C130.986 34.9339 126.929 33.4014 123.777 30.6236C120.624 27.8458 118.594 24.0136 118.065 19.8454C123.413 17.2946 129.263 15.9708 135.188 15.9708C141.113 15.9708 146.963 17.2946 152.311 19.8454Z" fill="black"/>
<path d="M174.858 57.3896C174.858 60.3307 174.534 63.2629 173.891 66.1328C172.724 71.3232 170.515 76.2225 167.397 80.5333C166.345 81.9783 165.2 83.3527 163.968 84.6478C158.558 90.3648 151.569 94.3418 143.89 96.0722C142.508 96.3845 141.109 96.6135 139.7 96.7579C138.189 96.9409 136.669 97.0302 135.147 97.0254C130.174 97.0303 125.245 96.0999 120.616 94.2824C119.291 93.7683 117.998 93.1776 116.742 92.5132C107.765 87.8041 100.922 79.8482 97.6094 70.2678C97.1332 68.8953 96.7371 67.4964 96.4231 66.0779C96.1762 64.9876 95.9773 63.8836 95.8265 62.759C95.5816 60.9613 95.4579 59.1491 95.4562 57.3348C95.453 53.4056 96.0331 49.4977 97.1774 45.7389C97.4037 44.9777 97.6643 44.2303 97.9386 43.4828C100.483 36.6624 104.853 30.6728 110.572 26.169C116.291 21.6653 123.138 18.8207 130.365 17.9465C137.592 17.0723 144.92 18.202 151.548 21.2121C158.176 24.2223 163.849 28.9969 167.946 35.014C172.458 41.6026 174.868 49.4039 174.858 57.3896Z" fill="#EEEFF0"/>
<path opacity="0.1" d="M97.9591 43.5377L97.63 70.3227C97.1537 68.9502 96.7576 67.5512 96.4436 66.1328C96.1968 65.0425 95.9979 63.9385 95.847 62.8139L97.2185 45.7938C97.4517 45.0121 97.6849 44.2852 97.9591 43.5377Z" fill="black"/>
<path opacity="0.1" d="M121.363 34.9522L120.636 94.3373C119.312 93.8232 118.018 93.2324 116.762 92.5681L121.363 34.9522Z" fill="black"/>
<path opacity="0.1" d="M144.658 34.9522L143.911 96.1133C142.529 96.4256 141.13 96.6546 139.721 96.7991L144.658 34.9522Z" fill="black"/>
<path opacity="0.1" d="M167.959 34.9522V35.0208L167.397 80.5676C166.345 82.0126 165.2 83.387 163.968 84.6821L167.925 35.0071L167.959 34.9522Z" fill="black"/>
<path opacity="0.1" d="M173.891 66.1328C171.908 74.9216 166.994 82.7744 159.956 88.4006C152.919 94.0268 144.177 97.0917 135.167 97.0917C126.157 97.0917 117.416 94.0268 110.378 88.4006C103.341 82.7744 98.4269 74.9216 96.4436 66.1328C108.197 59.2751 121.56 55.6615 135.167 55.6615C148.775 55.6615 162.138 59.2751 173.891 66.1328Z" fill="black"/>
<path d="M211.97 134.158C212.001 152.755 205.253 170.725 192.989 184.704C191.371 186.542 189.684 188.304 187.908 189.977C178.817 198.593 167.749 204.845 155.678 208.184C153.696 208.746 151.666 209.212 149.623 209.59C139.347 211.548 128.781 211.397 118.566 209.144C116.563 208.712 114.588 208.184 112.648 207.587C101 204.009 90.3741 197.704 81.6522 189.196C80.0133 187.625 78.4498 185.959 76.9686 184.224C49.2905 152.082 90.3712 92.002 85.0517 75.9096C79.7321 59.8172 165.688 51.8504 193.366 83.9926C205.38 97.9441 211.982 115.747 211.97 134.158Z" fill="#D33943"/>
<path opacity="0.1" d="M81.6246 189.223L82.523 92.7669L76.941 184.251L81.6246 189.223Z" fill="black"/>
<path opacity="0.1" d="M119.628 92.7669L118.538 209.171C116.536 208.739 114.561 208.211 112.62 207.615L119.628 92.7669Z" fill="black"/>
<path opacity="0.1" d="M156.734 92.7669L155.65 208.218C153.669 208.78 151.639 209.247 149.595 209.624L156.734 92.7669Z" fill="black"/>
<path opacity="0.1" d="M192.982 184.731L193.832 92.7669L187.894 190.005L192.982 184.731Z" fill="black"/>
<path d="M135.167 155.759C206.555 158.974 259.634 184.461 254.246 276.991C250.354 343.832 200.933 398.223 135.167 398.223C69.402 398.223 19.968 343.833 16.0886 276.991C10.066 173.221 68.2479 152.745 135.167 155.759Z" fill="#EEEFF0"/>
<path opacity="0.1" d="M48.0166 217.023L36.7979 357.675H46.2954L48.0166 217.023Z" fill="black"/>
<path opacity="0.1" d="M64.4058 217.023L53.1871 357.675H62.6846L64.4058 217.023Z" fill="black"/>
<path opacity="0.1" d="M211.963 217.023L200.744 357.675H210.242L211.963 217.023Z" fill="black"/>
<path opacity="0.1" d="M228.352 217.023L217.134 357.675H226.631L228.352 217.023Z" fill="black"/>
<path opacity="0.1" d="M243.384 327.646C224.547 369.312 183.169 398.23 135.167 398.23C87.1656 398.23 45.7881 369.312 26.9508 327.646C71.1845 267.88 155.493 255.288 215.259 299.522C225.975 307.453 235.453 316.931 243.384 327.646Z" fill="black"/>
<path d="M269.778 410.305C269.834 443.787 257.359 476.077 234.805 500.823C232.359 503.534 229.795 506.14 227.111 508.64C218.216 516.97 208.232 524.054 197.432 529.7C194.511 531.236 191.521 532.662 188.463 533.979C179.394 537.892 169.918 540.788 160.211 542.612C157.084 543.202 153.925 543.679 150.734 544.045C145.566 544.637 140.369 544.928 135.167 544.916C131.094 544.916 127.071 544.738 123.098 544.381C119.93 544.093 116.789 543.695 113.69 543.208C104.238 541.696 94.9771 539.167 86.0684 535.665C83.0877 534.518 80.1573 533.258 77.2772 531.887C67.1923 527.081 57.7474 521.034 49.1619 513.886C46.5744 511.747 44.076 509.509 41.6668 507.173C28.6348 494.638 18.2721 479.598 11.2014 462.956C4.13081 446.314 0.498338 428.414 0.522397 410.333C0.522397 406.26 0.700688 402.234 1.05727 398.257C4.43497 283.334 66.6276 272.029 135.133 275.722C211.433 279.835 269.246 274.253 269.209 398.257C269.584 402.216 269.773 406.232 269.778 410.305Z" fill="#D33943"/>
<path opacity="0.1" d="M50.5951 361.138L49.1756 513.859C46.5881 511.719 44.0897 509.482 41.6805 507.146L50.5951 361.138Z" fill="black"/>
<path opacity="0.1" d="M87.7005 361.138L86.0684 535.672C83.0877 534.52 80.1573 533.258 77.2772 531.887L87.7005 361.138Z" fill="black"/>
<path opacity="0.1" d="M123.091 544.381L124.806 361.124L113.69 543.209L123.091 544.381Z" fill="black"/>
<path opacity="0.1" d="M160.217 542.585L161.904 361.124L150.74 544.018L160.217 542.585Z" fill="black"/>
<path opacity="0.1" d="M199.01 361.138L197.439 529.686C194.518 531.222 191.528 532.648 188.47 533.965L199.01 361.138Z" fill="black"/>
<path opacity="0.1" d="M236.115 361.138L234.812 500.809C232.366 503.52 229.802 506.126 227.118 508.627L236.115 361.138Z" fill="black"/>
<path opacity="0.1" d="M207.65 206.668C207.65 245.755 175.201 277.423 135.167 277.423C95.1339 277.423 62.6847 245.749 62.6847 206.668C62.6826 200.199 63.5851 193.762 65.3659 187.543C72.4976 162.671 93.207 143.333 119.21 137.635C129.725 135.34 140.61 135.34 151.124 137.635C177.128 143.333 197.837 162.671 204.969 187.543C206.75 193.762 207.652 200.199 207.65 206.668Z" fill="black"/>
<path d="M205.922 204.94C205.9 222.836 199.087 240.056 186.857 253.121C174.628 266.186 157.896 274.122 140.041 275.326C122.186 276.529 104.54 270.911 90.6679 259.605C76.7961 248.299 67.7331 232.149 65.3101 214.418C62.887 196.687 67.2847 178.698 77.6144 164.085C87.9441 149.471 103.436 139.324 120.959 135.693C138.482 132.062 156.731 135.217 172.017 144.523C187.303 153.828 198.487 168.588 203.309 185.822C205.051 192.045 205.93 198.478 205.922 204.94Z" fill="#FFAB9E"/>
<path d="M68.726 134.186C112.762 93.3424 157.055 93.1705 201.609 134.186C204.355 134.186 206.989 135.277 208.93 137.218C210.872 139.16 211.963 141.794 211.963 144.54V173.876C211.963 176.622 210.872 179.256 208.93 181.198C206.989 183.14 204.355 184.231 201.609 184.231C158.212 163.944 114.057 160.803 68.726 184.231C67.3662 184.231 66.0197 183.963 64.7634 183.443C63.5072 182.922 62.3657 182.16 61.4042 181.198C60.4426 180.237 59.6799 179.095 59.1595 177.839C58.6392 176.582 58.3713 175.236 58.3713 173.876L58.3713 144.54C58.3713 141.794 59.4623 139.16 61.4042 137.218C63.346 135.277 65.9798 134.186 68.726 134.186Z" fill="#EEEFF0"/>
<path d="M222.318 302.445C222.318 324.835 209.988 333.681 193.764 342.122C192.001 343.034 190.198 343.949 188.353 344.865C182.572 347.766 176.449 350.776 170.311 354.431C168.199 355.693 166.08 357.023 163.975 358.457C157.661 362.702 151.888 367.701 146.784 373.344C143.812 376.653 141.093 380.181 138.651 383.898L138.644 383.911C137.451 385.722 136.292 387.601 135.167 389.596C104.967 443.098 48.0167 350.578 48.0167 302.445C48.0167 279.332 57.1986 257.165 73.5425 240.821C89.8864 224.477 112.054 215.295 135.167 215.295C158.281 215.295 180.448 224.477 196.792 240.821C213.136 257.165 222.318 279.332 222.318 302.445V302.445Z" fill="#EEEFF0"/>
<path d="M149.387 249.045C149.387 251.71 143.02 257.157 135.167 257.157C127.315 257.157 120.947 251.71 120.947 249.045C120.947 246.38 127.315 247.496 135.167 247.496C143.02 247.496 149.387 246.377 149.387 249.045Z" fill="#FFAB9E"/>
<path opacity="0.1" d="M269.778 408.584C269.787 419.041 268.579 429.464 266.178 439.641H4.19101C1.78951 429.464 0.58133 419.041 0.590876 408.584C0.590876 404.511 0.769189 400.483 1.12577 396.501H269.25C269.597 400.479 269.773 404.506 269.778 408.584Z" fill="black"/>
<path opacity="0.1" d="M269.778 412.033C269.787 422.493 268.579 432.918 266.178 443.097H4.19113C1.79002 432.918 0.581852 422.493 0.590994 412.033C0.590994 407.96 0.769306 403.933 1.12589 399.951H269.25C269.597 403.928 269.773 407.956 269.778 412.033Z" fill="black"/>
<path d="M269.778 410.305C269.788 420.765 268.579 431.19 266.178 441.369H4.19101C1.78948 431.19 0.581303 420.765 0.590877 410.305C0.590877 406.232 0.769189 402.207 1.12577 398.23C94.107 381.143 185.284 372.604 269.25 398.23C269.597 402.207 269.773 406.232 269.778 410.305Z" fill="#373E46"/>
<path opacity="0.1" d="M135.167 449.996C151.846 449.996 165.367 436.475 165.367 419.796C165.367 403.117 151.846 389.596 135.167 389.596C118.488 389.596 104.967 403.117 104.967 419.796C104.967 436.475 118.488 449.996 135.167 449.996Z" fill="black"/>
<path d="M135.167 448.268C150.892 448.268 163.639 435.521 163.639 419.796C163.639 404.071 150.892 391.324 135.167 391.324C119.443 391.324 106.695 404.071 106.695 419.796C106.695 435.521 119.443 448.268 135.167 448.268Z" fill="#EEEFF0"/>
<path d="M135.167 442.233C147.559 442.233 157.605 432.188 157.605 419.796C157.605 407.404 147.559 397.359 135.167 397.359C122.775 397.359 112.73 407.404 112.73 419.796C112.73 432.188 122.775 442.233 135.167 442.233Z" fill="#373E46"/>
<path opacity="0.1" d="M78.2098 265.34L76.9686 367.31C74.7303 365.304 72.5971 363.185 70.5775 360.96L78.2098 265.34Z" fill="black"/>
<path opacity="0.1" d="M101.504 265.34L100.085 382.238C97.4868 381.107 94.9505 379.839 92.4869 378.439L101.504 265.34Z" fill="black"/>
<path opacity="0.1" d="M124.806 265.34L123.297 388.773C120.53 388.403 117.784 387.892 115.068 387.244L124.806 265.34Z" fill="black"/>
<path opacity="0.1" d="M148.1 265.34L146.784 373.344C143.812 376.653 141.093 380.181 138.651 383.898L148.1 265.34Z" fill="black"/>
<path opacity="0.1" d="M171.402 265.34L170.312 354.431C168.199 355.693 166.081 357.023 163.975 358.457L171.402 265.34Z" fill="black"/>
<path opacity="0.1" d="M194.696 265.34L193.764 342.122C192.001 343.034 190.198 343.949 188.353 344.865L194.696 265.34Z" fill="black"/>
<path opacity="0.1" d="M80.5207 167.087L82.523 134.302L82.2213 167.087H80.5207Z" fill="black"/>
<path opacity="0.1" d="M119.32 167.087L119.628 134.302L117.626 167.087H119.32Z" fill="black"/>
<path opacity="0.1" d="M156.727 134.302L156.418 167.087H154.724L156.727 134.302Z" fill="black"/>
<path opacity="0.1" d="M191.83 167.087L193.832 134.302L193.53 167.087H191.83Z" fill="black"/>
<path d="M135.291 242.996C149.136 242.996 160.359 231.773 160.359 217.928C160.359 204.083 149.136 192.86 135.291 192.86C121.446 192.86 110.222 204.083 110.222 217.928C110.222 231.773 121.446 242.996 135.291 242.996Z" fill="#FFAB9E"/>
</svg>
