<?xml version="1.0" standalone="no"?>
<!DOCTYPE svg PUBLIC "-//W3C//DTD SVG 20010904//EN"
 "http://www.w3.org/TR/2001/REC-SVG-20010904/DTD/svg10.dtd">
<svg version="1.0" xmlns="http://www.w3.org/2000/svg"
 width="179.000000pt" height="179.000000pt" viewBox="0 0 179.000000 179.000000"
 preserveAspectRatio="xMidYMid meet">
<metadata>
Created by potrace 1.14, written by Peter Selinger 2001-2017
</metadata>
<g transform="translate(0.000000,179.000000) scale(0.100000,-0.100000)"
fill="#000000" stroke="none">
<path d="M587 1774 c-4 -4 -7 -89 -7 -189 0 -189 -6 -216 -40 -195 -12 7 -15
41 -17 167 -1 87 -2 161 -2 166 -2 14 -38 7 -54 -11 -14 -16 -17 -42 -16 -166
1 -114 -2 -150 -12 -157 -8 -5 -20 -2 -29 6 -12 11 -16 34 -15 100 1 89 -9
121 -34 106 -19 -12 -39 -97 -35 -148 9 -106 106 -212 247 -269 35 -14 49 -26
54 -44 3 -14 14 -42 24 -62 18 -36 18 -38 1 -55 -10 -10 -29 -33 -41 -50 -19
-29 -28 -33 -66 -33 -50 0 -55 -8 -55 -85 0 -40 4 -56 17 -63 14 -9 16 -33 15
-208 0 -110 4 -224 10 -254 29 -152 151 -278 304 -313 90 -20 478 -16 520 6
102 53 135 182 70 275 -32 46 -69 69 -127 78 -79 12 -79 13 -79 219 0 152 3
185 15 195 12 10 15 29 13 79 l-3 66 -47 3 c-40 3 -50 8 -74 40 -16 20 -34 43
-40 49 -10 10 -8 21 7 52 10 22 19 48 19 58 0 13 26 30 88 60 93 45 119 65
169 129 38 48 66 139 51 167 -16 31 -33 12 -38 -44 -5 -50 -7 -54 -30 -54
l-25 0 -1 143 c-1 128 -3 144 -20 157 -44 34 -49 20 -50 -144 -1 -119 -4 -155
-15 -162 -9 -6 -19 -3 -29 9 -12 15 -15 51 -14 185 0 127 -3 170 -13 179 -9 7
-17 7 -28 -2 -9 -7 -14 -15 -11 -17 9 -9 -25 -126 -53 -181 -31 -59 -65 -101
-105 -127 -17 -11 -30 -12 -56 -5 -19 5 -58 7 -86 4 -50 -5 -54 -4 -93 34 -49
46 -95 142 -114 237 -13 66 -30 89 -50 69z"/>
</g>
</svg>
